<svg width="23" height="22" viewBox="0 0 23 22" fill="none" xmlns="http://www.w3.org/2000/svg">
<path d="M8.53328 9.96421C8.44012 9.95504 8.32833 9.95504 8.22586 9.96421C6.00872 9.89087 4.24805 8.10337 4.24805 5.90337C4.24805 3.65754 6.09256 1.83337 8.38423 1.83337C10.6666 1.83337 12.5204 3.65754 12.5204 5.90337C12.5111 8.10337 10.7504 9.89087 8.53328 9.96421Z" stroke="#5900B3" stroke-width="1.5" stroke-linecap="round" stroke-linejoin="round"/>
<path d="M15.2871 3.66663C17.0944 3.66663 18.5476 5.10579 18.5476 6.87496C18.5476 8.60746 17.1503 10.0191 15.4082 10.0833C15.3337 10.0741 15.2499 10.0741 15.166 10.0833" stroke="#5900B3" stroke-width="1.5" stroke-linecap="round" stroke-linejoin="round"/>
<path d="M3.87537 13.3466C1.62097 14.8316 1.62097 17.2516 3.87537 18.7275C6.4372 20.4141 10.6386 20.4141 13.2004 18.7275C15.4548 17.2425 15.4548 14.8225 13.2004 13.3466C10.6479 11.6691 6.44651 11.6691 3.87537 13.3466Z" stroke="#5900B3" stroke-width="1.5" stroke-linecap="round" stroke-linejoin="round"/>
<path d="M17.085 18.3334C17.7557 18.1959 18.3892 17.93 18.9108 17.5359C20.3641 16.4634 20.3641 14.6942 18.9108 13.6217C18.3985 13.2367 17.7743 12.98 17.1129 12.8334" stroke="#5900B3" stroke-width="1.5" stroke-linecap="round" stroke-linejoin="round"/>
</svg>
