<svg width="22" height="22" viewBox="0 0 22 22" fill="none" xmlns="http://www.w3.org/2000/svg">
<path d="M8.39635 9.96421C8.30469 9.95504 8.19469 9.95504 8.09385 9.96421C5.91219 9.89087 4.17969 8.10337 4.17969 5.90337C4.17969 3.65754 5.99469 1.83337 8.24969 1.83337C10.4955 1.83337 12.3197 3.65754 12.3197 5.90337C12.3105 8.10337 10.578 9.89087 8.39635 9.96421Z" stroke="#8A96A8" stroke-width="1.5" stroke-linecap="round" stroke-linejoin="round"/>
<path d="M15.043 3.66663C16.8213 3.66663 18.2513 5.10579 18.2513 6.87496C18.2513 8.60746 16.8763 10.0191 15.1622 10.0833C15.0888 10.0741 15.0063 10.0741 14.9238 10.0833" stroke="#8A96A8" stroke-width="1.5" stroke-linecap="round" stroke-linejoin="round"/>
<path d="M3.81414 13.3466C1.59581 14.8316 1.59581 17.2516 3.81414 18.7275C6.33497 20.4141 10.4691 20.4141 12.99 18.7275C15.2083 17.2425 15.2083 14.8225 12.99 13.3466C10.4783 11.6691 6.34414 11.6691 3.81414 13.3466Z" stroke="#8A96A8" stroke-width="1.5" stroke-linecap="round" stroke-linejoin="round"/>
<path d="M16.8125 18.3334C17.4725 18.1959 18.0958 17.93 18.6092 17.5359C20.0392 16.4634 20.0392 14.6942 18.6092 13.6217C18.105 13.2367 17.4908 12.98 16.84 12.8334" stroke="#8A96A8" stroke-width="1.5" stroke-linecap="round" stroke-linejoin="round"/>
</svg>
