<svg width="22" height="22" viewBox="0 0 22 22" fill="none" xmlns="http://www.w3.org/2000/svg">
<path d="M8.3966 9.96421C8.30493 9.95504 8.19493 9.95504 8.0941 9.96421C5.91243 9.89087 4.17993 8.10337 4.17993 5.90337C4.17993 3.65754 5.99493 1.83337 8.24993 1.83337C10.4958 1.83337 12.3199 3.65754 12.3199 5.90337C12.3108 8.10337 10.5783 9.89087 8.3966 9.96421Z" stroke="#5C6271" stroke-width="1.5" stroke-linecap="round" stroke-linejoin="round"/>
<path d="M15.0425 3.66663C16.8208 3.66663 18.2508 5.10579 18.2508 6.87496C18.2508 8.60746 16.8758 10.0191 15.1617 10.0833C15.0883 10.0741 15.0058 10.0741 14.9233 10.0833" stroke="#5C6271" stroke-width="1.5" stroke-linecap="round" stroke-linejoin="round"/>
<path d="M3.81341 13.3466C1.59507 14.8316 1.59507 17.2516 3.81341 18.7275C6.33424 20.4141 10.4684 20.4141 12.9892 18.7275C15.2076 17.2425 15.2076 14.8225 12.9892 13.3466C10.4776 11.6691 6.34341 11.6691 3.81341 13.3466Z" stroke="#5C6271" stroke-width="1.5" stroke-linecap="round" stroke-linejoin="round"/>
<path d="M16.8118 18.3334C17.4718 18.1959 18.0951 17.93 18.6084 17.5359C20.0384 16.4634 20.0384 14.6942 18.6084 13.6217C18.1043 13.2367 17.4901 12.98 16.8393 12.8334" stroke="#5C6271" stroke-width="1.5" stroke-linecap="round" stroke-linejoin="round"/>
</svg>
