<svg width="22" height="21" viewBox="0 0 22 21" fill="none" xmlns="http://www.w3.org/2000/svg">
<path d="M6.88167 11.2482C6.77107 11.1672 6.67846 11.0641 6.6097 10.9455C6.54095 10.8269 6.49753 10.6953 6.48219 10.5591C6.46685 10.4229 6.47992 10.2849 6.52058 10.154C6.56124 10.0231 6.62861 9.90201 6.71843 9.79844C6.80824 9.69487 6.91856 9.61104 7.04241 9.55226C7.16626 9.49348 7.30096 9.46101 7.43799 9.45691C7.57502 9.45282 7.71141 9.47718 7.83855 9.52845C7.96569 9.57973 8.08082 9.65682 8.17667 9.75484L9.83333 11.1665V1.83317C9.83333 1.52375 9.95625 1.22701 10.175 1.00821C10.3938 0.78942 10.6906 0.666504 11 0.666504C11.3094 0.666504 11.6062 0.78942 11.825 1.00821C12.0437 1.22701 12.1667 1.52375 12.1667 1.83317V11.1665L13.8233 9.73151C13.9192 9.63348 14.0343 9.5564 14.1614 9.50512C14.2886 9.45384 14.425 9.42948 14.562 9.43358C14.699 9.43768 14.8337 9.47014 14.9576 9.52893C15.0814 9.58771 15.1918 9.67153 15.2816 9.77511C15.3714 9.87868 15.4388 9.99975 15.4794 10.1307C15.5201 10.2616 15.5332 10.3995 15.5178 10.5358C15.5025 10.672 15.4591 10.8036 15.3903 10.9222C15.3215 11.0408 15.2289 11.1438 15.1183 11.2248L11.6183 14.2348C11.5821 14.2624 11.543 14.2859 11.5017 14.3048C11.4473 14.3428 11.3885 14.3742 11.3267 14.3982H11.1517H10.965H10.7783H10.6033C10.5415 14.3742 10.4827 14.3428 10.4283 14.3048C10.387 14.2859 10.3479 14.2624 10.3117 14.2348L6.88167 11.2482ZM20.3333 12.3332C20.0239 12.3332 19.7272 12.4561 19.5084 12.6749C19.2896 12.8937 19.1667 13.1904 19.1667 13.4998V16.9998C19.1667 17.3093 19.0438 17.606 18.825 17.8248C18.6062 18.0436 18.3094 18.1665 18 18.1665H4C3.69058 18.1665 3.39383 18.0436 3.17504 17.8248C2.95625 17.606 2.83333 17.3093 2.83333 16.9998V13.4998C2.83333 13.1904 2.71042 12.8937 2.49162 12.6749C2.27283 12.4561 1.97609 12.3332 1.66667 12.3332C1.35725 12.3332 1.0605 12.4561 0.841709 12.6749C0.622916 12.8937 0.5 13.1904 0.5 13.4998V16.9998C0.5 17.9281 0.868749 18.8183 1.52513 19.4747C2.1815 20.1311 3.07174 20.4998 4 20.4998H18C18.9283 20.4998 19.8185 20.1311 20.4749 19.4747C21.1313 18.8183 21.5 17.9281 21.5 16.9998V13.4998C21.5 13.1904 21.3771 12.8937 21.1583 12.6749C20.9395 12.4561 20.6428 12.3332 20.3333 12.3332Z" fill="#5900B3"/>
</svg>
