<svg width="36" height="36" viewBox="0 0 36 36" fill="none" xmlns="http://www.w3.org/2000/svg">
<circle cx="18" cy="18" r="17.25" fill="white" stroke="#5900B3" stroke-width="1.5"/>
<path d="M17.577 10.3242H14.4612C11.8987 10.3242 10.292 12.1384 10.292 14.7067V21.6351C10.292 24.2034 11.8912 26.0176 14.4612 26.0176H21.8145C24.3853 26.0176 25.9845 24.2034 25.9845 21.6351V18.2784" stroke="#5900B3" stroke-width="1.5" stroke-linecap="round" stroke-linejoin="round"/>
<path fill-rule="evenodd" clip-rule="evenodd" d="M15.3565 17.1007L21.584 10.8732C22.3599 10.0982 23.6174 10.0982 24.3932 10.8732L25.4074 11.8874C26.1832 12.6632 26.1832 13.9216 25.4074 14.6966L19.1499 20.9541C18.8107 21.2932 18.3507 21.4841 17.8707 21.4841H14.749L14.8274 18.3341C14.839 17.8707 15.0282 17.4291 15.3565 17.1007Z" stroke="#5900B3" stroke-width="1.5" stroke-linecap="round" stroke-linejoin="round"/>
<path d="M20.6377 11.8354L24.4427 15.6404" stroke="#5900B3" stroke-width="1.5" stroke-linecap="round" stroke-linejoin="round"/>
</svg>
