<svg width="453" height="328" viewBox="0 0 453 328" fill="none" xmlns="http://www.w3.org/2000/svg">
<path fill-rule="evenodd" clip-rule="evenodd" d="M90.9198 221.537L92.2371 218.358C94.0975 219.13 96.1402 219.558 98.2915 219.558H103.02V223H98.2915C95.6803 223 93.1904 222.48 90.9198 221.537ZM207.047 223V219.558H211.776C213.927 219.558 215.97 219.13 217.83 218.358L219.147 221.537C216.877 222.48 214.387 223 211.776 223H207.047ZM231.034 46.3506H227.595V41.274C227.595 39.1209 227.167 37.0765 226.396 35.2145L229.572 33.8961C230.514 36.1687 231.034 38.6606 231.034 41.274V46.3506ZM103.02 22H98.2915C95.6803 22 93.1904 22.5201 90.9198 23.4625L92.2371 26.6418C94.0975 25.8697 96.1402 25.4418 98.2915 25.4418H103.02V22ZM79.0336 198.649H82.4725V203.726C82.4725 205.879 82.9 207.924 83.6715 209.785L80.4949 211.104C79.5533 208.831 79.0336 206.339 79.0336 203.726V198.649ZM79.0336 188.496H82.4725V178.343H79.0336V188.496ZM79.0336 168.19H82.4725V158.036H79.0336V168.19ZM79.0336 147.883H82.4725V137.73H79.0336V147.883ZM79.0336 127.577H82.4725V117.423H79.0336V127.577ZM79.0336 107.27H82.4725V97.1169H79.0336V107.27ZM79.0336 86.9636H82.4725V76.8104H79.0336V86.9636ZM79.0336 66.6571H82.4725V56.5038H79.0336V66.6571ZM79.0336 46.3506H82.4725V41.274C82.4725 39.1209 82.9 37.0765 83.6715 35.2145L80.4949 33.8961C79.5533 36.1687 79.0336 38.6606 79.0336 41.274V46.3506ZM112.477 22V25.4418H121.934V22H112.477ZM131.391 22V25.4418H140.848V22H131.391ZM150.305 22V25.4418H159.762V22H150.305ZM169.219 22V25.4418H178.676V22H169.219ZM188.133 22V25.4418H197.59V22H188.133ZM207.047 22V25.4418H211.776C213.927 25.4418 215.97 25.8697 217.83 26.6418L219.147 23.4625C216.877 22.5201 214.387 22 211.776 22H207.047ZM231.034 56.5039H227.595V66.6571H231.034V56.5039ZM231.034 76.8104H227.595V86.9636H231.034V76.8104ZM231.034 97.1169H227.595V107.27H231.034V97.1169ZM231.034 117.423H227.595V127.577H231.034V117.423ZM231.034 137.73H227.595V147.883H231.034V137.73ZM231.034 158.036H227.595V168.19H231.034V158.036ZM231.034 178.343H227.595V188.496H231.034V178.343ZM231.034 198.649H227.595V203.726C227.595 205.879 227.167 207.924 226.396 209.785L229.572 211.104C230.514 208.831 231.034 206.339 231.034 203.726V198.649ZM197.59 223V219.558H188.133V223H197.59ZM178.676 223V219.558H169.219V223H178.676ZM159.762 223V219.558H150.305V223H159.762ZM140.848 223V219.558H131.391V223H140.848ZM121.934 223V219.558H112.477V223H121.934Z" fill="#E9E9E9"/>
<rect x="2.53357" y="158.5" width="167" height="167" rx="83.5" stroke="#3E75FE" stroke-width="5" stroke-linejoin="round"/>
<path fill-rule="evenodd" clip-rule="evenodd" d="M32.0506 73.4195L32.4962 70.0031C33.9247 70.1894 35.383 70.2857 36.8656 70.2857H41.8326V73.7311H36.8656C35.2336 73.7311 33.6265 73.6251 32.0506 73.4195ZM151.109 73.7311V70.2857H156.076C157.558 70.2857 159.016 70.1894 160.445 70.0031L160.891 73.4195C159.315 73.6251 157.708 73.7311 156.076 73.7311H151.109ZM170.187 70.9337L168.868 67.7511C171.583 66.6252 174.119 65.1508 176.419 63.3827L178.519 66.1147C175.982 68.0641 173.184 69.6909 170.187 70.9337ZM185.325 59.3087L182.593 57.2093C184.361 54.9086 185.835 52.3726 186.961 49.6575L190.144 50.9772C188.901 53.9743 187.274 56.7719 185.325 59.3087ZM192.63 41.6805L189.213 41.2349C189.399 39.8064 189.496 38.3481 189.496 36.8655C189.496 35.383 189.399 33.9247 189.213 32.4962L192.63 32.0506C192.835 33.6264 192.941 35.2336 192.941 36.8655C192.941 38.4975 192.835 40.1046 192.63 41.6805ZM190.144 22.7539L186.961 24.0736C185.835 21.3585 184.361 18.8225 182.593 16.5218L185.325 14.4224C187.274 16.9592 188.901 19.7568 190.144 22.7539ZM178.519 7.61644L176.419 10.3484C174.119 8.58029 171.583 7.10587 168.868 5.97996L170.187 2.79738C173.184 4.04022 175.982 5.66703 178.519 7.61644ZM41.8326 0H36.8656C35.2336 0 33.6265 0.106037 32.0506 0.311598L32.4962 3.72803C33.9247 3.5417 35.383 3.44538 36.8656 3.44538H41.8326V0ZM22.7539 2.79738L24.0736 5.97996C21.3585 7.10587 18.8225 8.58029 16.5217 10.3484L14.4224 7.61644C16.9592 5.66703 19.7568 4.04022 22.7539 2.79738ZM7.61644 14.4224L10.3484 16.5217C8.58029 18.8225 7.10587 21.3585 5.97996 24.0736L2.79738 22.7539C4.04022 19.7568 5.66703 16.9592 7.61644 14.4224ZM0.311598 32.0506C0.106038 33.6264 0 35.2336 0 36.8655C0 38.4975 0.106037 40.1046 0.311598 41.6805L3.72803 41.2349C3.5417 39.8064 3.44538 38.3481 3.44538 36.8655C3.44538 35.383 3.5417 33.9247 3.72803 32.4962L0.311598 32.0506ZM2.79738 50.9772L5.97996 49.6575C7.10587 52.3726 8.58029 54.9086 10.3483 57.2093L7.61644 59.3087C5.66703 56.7719 4.04021 53.9743 2.79738 50.9772ZM14.4224 66.1147L16.5217 63.3827C18.8225 65.1508 21.3585 66.6252 24.0736 67.7511L22.7539 70.9337C19.7568 69.6909 16.9592 68.0641 14.4224 66.1147ZM51.7668 0V3.44538H61.701V0H51.7668ZM71.6352 0V3.44538H81.5693V0H71.6352ZM91.5035 0V3.44538H101.438V0H91.5035ZM111.372 0V3.44538H121.306V0H111.372ZM131.24 0V3.44538H141.174V0H131.24ZM151.109 0V3.44538H156.076C157.558 3.44538 159.016 3.5417 160.445 3.72803L160.891 0.311598C159.315 0.106037 157.708 0 156.076 0H151.109ZM141.174 73.7311V70.2857H131.24V73.7311H141.174ZM121.306 73.7311V70.2857H111.372V73.7311H121.306ZM101.438 73.7311V70.2857H91.5035V73.7311H101.438ZM81.5693 73.7311V70.2857H71.6352V73.7311H81.5693ZM61.701 73.7311V70.2857H51.7668V73.7311H61.701Z" fill="#3E75FE"/>
<rect x="8.95798" y="8.26904" width="174.336" height="56.5042" rx="28.2521" fill="#3E75FE"/>
<path fill-rule="evenodd" clip-rule="evenodd" d="M34.3134 52.6859C35.3549 52.892 36.4316 53 37.5336 53C38.6355 53 39.7123 52.892 40.7537 52.6859L37.5669 36.577L46.7012 50.2208C48.5006 49.0162 50.0498 47.467 51.2544 45.6677L37.6106 36.5333L53.7195 39.7202C53.9255 38.6787 54.0336 37.602 54.0336 36.5C54.0336 35.398 53.9255 34.3213 53.7195 33.2798L37.6106 36.4667L51.2544 27.3323C50.0498 25.533 48.5006 23.9838 46.7012 22.7792L37.5669 36.423L40.7537 20.3141C39.7123 20.108 38.6355 20 37.5336 20C36.4316 20 35.3549 20.108 34.3134 20.3141L37.5002 36.423L28.3659 22.7792C26.5666 23.9838 25.0174 25.533 23.8127 27.3323L37.4566 36.4667L21.3476 33.2798C21.1416 34.3213 21.0336 35.398 21.0336 36.5C21.0336 37.602 21.1416 38.6787 21.3476 39.7202L37.4566 36.5333L23.8127 45.6677C25.0174 47.467 26.5666 49.0162 28.3659 50.2208L37.5002 36.577L34.3134 52.6859Z" fill="#DCEA36"/>
<rect width="26" height="27" rx="13" transform="matrix(-1 0 0 1 51.0336 23)" fill="#DCEA36"/>
<path d="M405.534 149C431.215 149 452.034 169.819 452.034 195.5C452.034 221.181 431.215 242 405.534 242H114.034V149H405.534Z" fill="#CFDD2A"/>
<path fill-rule="evenodd" clip-rule="evenodd" d="M389.664 231.907C388.088 232.112 386.481 232.218 384.849 232.218C383.217 232.218 381.61 232.112 380.034 231.907L380.301 229.857C381.789 230.051 383.307 230.151 384.849 230.151C386.391 230.151 387.909 230.051 389.396 229.857L389.664 231.907ZM370.737 229.421L371.529 227.511C368.701 226.339 366.06 224.803 363.665 222.963L362.406 224.602C364.942 226.551 367.74 228.178 370.737 229.421ZM355.6 217.796L357.239 216.536C355.398 214.141 353.863 211.501 352.69 208.673L350.781 209.465C352.023 212.462 353.65 215.259 355.6 217.796ZM348.295 200.168L350.345 199.9C350.151 198.413 350.051 196.895 350.051 195.353C350.051 193.811 350.151 192.293 350.345 190.805L348.295 190.538C348.089 192.114 347.983 193.721 347.983 195.353C347.983 196.985 348.089 198.592 348.295 200.168ZM350.781 181.241L352.69 182.033C353.863 179.205 355.398 176.564 357.239 174.169L355.6 172.91C353.65 175.446 352.023 178.244 350.781 181.241ZM362.406 166.104L363.665 167.743C366.06 165.902 368.701 164.367 371.529 163.194L370.737 161.285C367.74 162.528 364.942 164.154 362.406 166.104ZM380.034 158.799C381.61 158.593 383.217 158.487 384.849 158.487C386.481 158.487 388.088 158.593 389.664 158.799L389.396 160.849C387.909 160.655 386.391 160.555 384.849 160.555C383.307 160.555 381.789 160.655 380.301 160.849L380.034 158.799ZM398.961 161.285L398.169 163.194C400.997 164.367 403.637 165.902 406.032 167.743L407.292 166.104C404.755 164.154 401.958 162.528 398.961 161.285ZM414.098 172.91L412.459 174.169C414.299 176.564 415.835 179.205 417.007 182.033L418.917 181.241C417.674 178.244 416.047 175.446 414.098 172.91ZM421.403 190.538L419.353 190.805C419.547 192.293 419.647 193.811 419.647 195.353C419.647 196.895 419.547 198.413 419.353 199.9L421.403 200.168C421.608 198.592 421.714 196.985 421.714 195.353C421.714 193.721 421.608 192.114 421.403 190.538ZM418.917 209.465L417.007 208.673C415.835 211.501 414.299 214.141 412.459 216.536L414.098 217.796C416.047 215.259 417.674 212.462 418.917 209.465ZM407.292 224.602L406.032 222.963C403.637 224.803 400.997 226.339 398.169 227.511L398.961 229.421C401.958 228.178 404.755 226.551 407.292 224.602Z" fill="#3E75FE"/>
<rect x="356.941" y="166.756" width="56.5042" height="56.5042" rx="28.2521" fill="#3E75FE"/>
</svg>
