<svg width="288" height="256" viewBox="0 0 288 256" fill="none" xmlns="http://www.w3.org/2000/svg">
<path opacity="0.62" d="M143.663 255.427C223.007 255.427 287.327 251.592 287.327 246.861C287.327 242.13 223.007 238.295 143.663 238.295C64.3203 238.295 0 242.13 0 246.861C0 251.592 64.3203 255.427 143.663 255.427Z" fill="#5900B3" fill-opacity="0.15"/>
<path d="M3.52832 167.473V196.869C3.52832 199.684 5.8278 201.978 8.63842 201.978H278.69C281.504 201.978 283.8 199.684 283.8 196.869V167.473H3.52832Z" fill="#F0F0F0"/>
<path d="M283.8 5.11009C283.8 2.29804 281.505 0 278.69 0H8.6379C5.82585 0 3.52637 2.29804 3.52637 5.11009V167.473H283.8V5.11009Z" fill="#534B62"/>
<path d="M192.456 201.978H96.0547V231.574H192.456V201.978Z" fill="#D6D6D6"/>
<path d="M214.298 231.573H72.8887V245.428H214.298V231.573Z" fill="#F0F0F0"/>
<path d="M192.456 201.978H96.0547V212.675H192.456V201.978Z" fill="#BDBDBD"/>
<path d="M269.365 14.5791H18.0166V152.495H269.365V14.5791Z" fill="#D6D6D6"/>
<path d="M117.024 41.6309L99.5337 59.1225L82.0435 41.6309L75.0469 48.6275L92.5371 66.1191L75.0469 83.6094L82.0435 90.606L99.5337 73.1172L117.024 90.606L124.021 83.6094L106.53 66.1191L124.021 48.6275L117.024 41.6309Z" fill="#534B62"/>
<path d="M212.28 48.6275L205.284 41.6309L187.794 59.1225L170.303 41.6309L163.307 48.6275L180.797 66.1191L163.307 83.6094L170.303 90.606L187.794 73.1172L205.284 90.606L212.28 83.6094L194.79 66.1191L212.28 48.6275Z" fill="#534B62"/>
<path d="M181.131 133.336C144.119 107.78 106.627 133.077 106.25 133.336L101.397 126.305C101.819 126.013 144.179 97.437 185.984 126.305L181.131 133.336Z" fill="#534B62"/>
</svg>
