<svg width="30" height="30" viewBox="0 0 30 30" fill="none" xmlns="http://www.w3.org/2000/svg">
<path d="M15 8.0498V12.2123" stroke="#55606D" stroke-width="1.8" stroke-miterlimit="10" stroke-linecap="round"/>
<path d="M15.0246 2.5C10.4246 2.5 6.69963 6.225 6.69963 10.825V13.45C6.69963 14.3 6.34963 15.575 5.91213 16.3L4.32463 18.95C3.34963 20.5875 4.02463 22.4125 5.82463 23.0125C11.7996 25 18.2621 25 24.2371 23.0125C25.9246 22.45 26.6496 20.475 25.7371 18.95L24.1496 16.3C23.7121 15.575 23.3621 14.2875 23.3621 13.45V10.825C23.3496 6.25 19.5996 2.5 15.0246 2.5Z" stroke="#55606D" stroke-width="1.8" stroke-miterlimit="10" stroke-linecap="round"/>
<path d="M19.1629 23.5249C19.1629 25.8124 17.2879 27.6874 15.0004 27.6874C13.8629 27.6874 12.8129 27.2124 12.0629 26.4624C11.3129 25.7124 10.8379 24.6624 10.8379 23.5249" stroke="#55606D" stroke-width="1.8" stroke-miterlimit="10"/>
</svg>
