<svg width="259" height="308" viewBox="0 0 259 308" fill="none" xmlns="http://www.w3.org/2000/svg">
<path d="M99.9419 251.985C94.8082 246.698 87.3689 243.667 79.5313 243.667L79.229 243.667C74.0666 243.669 68.9962 242.302 64.5366 239.706L64.0726 239.436L64.4463 239.051C66.4699 236.961 68.1595 234.572 69.456 231.969C68.5352 232.826 67.4369 233.471 66.2389 233.858C65.0409 234.244 63.7724 234.363 62.5234 234.205C61.2047 234.048 59.9386 233.595 58.8203 232.88C57.702 232.165 56.7604 231.206 56.0662 230.076C53.3269 225.638 50.0615 219.341 50.0615 214.544C50.0658 210.489 50.9161 206.479 52.5582 202.771C54.2003 199.062 56.5982 195.736 59.599 193.004C61.4988 191.294 63.0163 189.203 64.0524 186.868C65.0886 184.532 65.6202 182.005 65.6126 179.451L65.6111 179.088C65.6106 175.725 66.0222 172.375 66.8366 169.112L66.9193 168.782L67.2588 168.794C69.4483 168.868 71.6389 168.685 73.7854 168.248C71.7719 168.002 69.8023 167.478 67.9322 166.694L67.5669 166.546L67.6909 166.172C76.2356 160.89 95.5236 163.625 106.719 138.05C115.797 117.312 147.827 156.459 147.827 179.088C147.827 181.397 145.538 184.448 147.251 185.974C165.771 202.471 152.993 213.065 148.964 223.724C148.008 226.253 150.081 229.03 150.081 231.766C150.081 232.23 150.069 232.71 150.045 233.19L150.01 233.93L149.392 233.52C148.17 232.72 147.038 231.793 146.014 230.753C147.076 233.194 147.577 235.841 147.479 238.5C147.381 241.159 146.688 243.762 145.449 246.118C143.508 249.776 141.631 252.394 139.868 253.9C134.223 258.724 126.946 261.212 119.524 260.856C112.103 260.5 105.098 257.327 99.9419 251.985H99.9419Z" fill="#FFD233"/>
<path d="M130.947 307.011C131.074 307.011 131.196 306.965 131.291 306.883C131.386 306.8 131.448 306.686 131.466 306.561C131.488 306.405 133.671 290.686 131.711 269.794C129.9 250.5 124.086 222.71 106.669 199.886C106.627 199.832 106.575 199.786 106.516 199.751C106.456 199.716 106.39 199.694 106.322 199.684C106.254 199.675 106.184 199.679 106.117 199.697C106.051 199.715 105.988 199.745 105.933 199.787C105.879 199.829 105.833 199.881 105.798 199.94C105.763 200 105.741 200.065 105.731 200.134C105.722 200.202 105.727 200.271 105.744 200.338C105.762 200.404 105.793 200.467 105.835 200.521C123.101 223.148 128.869 250.734 130.666 269.892C132.615 290.662 130.45 306.258 130.427 306.414C130.417 306.488 130.423 306.564 130.444 306.636C130.465 306.708 130.502 306.774 130.551 306.831C130.6 306.887 130.661 306.933 130.73 306.964C130.798 306.995 130.872 307.011 130.947 307.011V307.011Z" fill="#3F3D56"/>
<path d="M116.734 232.08C116.845 232.08 116.953 232.045 117.043 231.98C117.132 231.916 117.199 231.824 117.233 231.719C117.268 231.613 117.268 231.5 117.234 231.395C117.199 231.29 117.133 231.198 117.043 231.133C112.08 227.779 106.719 225.054 101.083 223.02C92.2769 219.801 78.8865 216.883 65.1014 221.264C65.0357 221.285 64.9746 221.318 64.9218 221.362C64.869 221.407 64.8255 221.461 64.7938 221.522C64.762 221.583 64.7426 221.65 64.7368 221.719C64.7309 221.787 64.7386 221.857 64.7596 221.922C64.7805 221.988 64.8142 222.049 64.8587 222.101C64.9032 222.154 64.9577 222.197 65.019 222.229C65.0803 222.26 65.1472 222.28 65.2159 222.285C65.2847 222.291 65.3539 222.283 65.4196 222.262C78.9222 217.971 92.0699 220.841 100.722 224.004C106.268 226.002 111.543 228.682 116.426 231.98C116.516 232.045 116.624 232.08 116.734 232.08Z" fill="#3F3D56"/>
<path d="M140.742 172.376C140.75 172.266 140.723 172.155 140.664 172.061C140.606 171.967 140.519 171.894 140.417 171.853C140.314 171.811 140.201 171.803 140.093 171.829C139.986 171.856 139.889 171.916 139.818 172C136.11 176.701 133.002 181.844 130.565 187.311C126.715 195.849 122.836 208.974 126.219 223.018C126.235 223.085 126.264 223.148 126.305 223.204C126.345 223.259 126.396 223.307 126.455 223.343C126.514 223.379 126.579 223.403 126.647 223.413C126.715 223.424 126.785 223.421 126.852 223.405C126.919 223.389 126.982 223.36 127.038 223.32C127.093 223.279 127.141 223.228 127.177 223.169C127.213 223.111 127.237 223.045 127.247 222.977C127.258 222.909 127.255 222.84 127.239 222.773C123.925 209.017 127.739 196.13 131.521 187.741C133.917 182.362 136.973 177.301 140.62 172.675C140.691 172.591 140.734 172.486 140.742 172.376Z" fill="#3F3D56"/>
<path d="M241.919 306.457H200.162L199.982 306.132C199.448 305.165 198.933 304.14 198.451 303.088C194.15 293.893 192.332 283.377 190.728 274.099L189.52 267.106C189.373 266.259 189.484 265.387 189.836 264.603C190.189 263.819 190.768 263.158 191.499 262.704C192.23 262.251 193.08 262.025 193.94 262.057C194.8 262.088 195.631 262.375 196.327 262.881C202.673 267.492 209.022 272.098 215.373 276.7C217.777 278.447 220.524 280.469 223.154 282.654C223.408 281.424 223.673 280.189 223.938 278.972C224.121 278.132 224.551 277.365 225.173 276.77C225.795 276.175 226.581 275.779 227.43 275.633C228.278 275.486 229.152 275.596 229.938 275.948C230.724 276.3 231.386 276.878 231.841 277.608L236.727 285.446C240.29 291.169 243.436 296.809 242.795 302.893C242.798 302.967 242.792 303.041 242.778 303.113C242.65 304.113 242.412 305.095 242.069 306.042L241.919 306.457Z" fill="#F0F0F0"/>
<path d="M222.465 142.539L214.406 112.756C214.061 111.495 213.233 110.42 212.101 109.763C210.969 109.106 209.624 108.92 208.356 109.245C207.7 109.413 207.085 109.713 206.549 110.126C206.013 110.538 205.567 111.056 205.237 111.647C204.908 112.238 204.703 112.889 204.634 113.562C204.565 114.235 204.634 114.914 204.837 115.56L214.158 146.241L219.035 165.123C218.324 165.664 217.798 166.411 217.528 167.261C217.257 168.112 217.256 169.025 217.523 169.876C217.79 170.728 218.314 171.476 219.022 172.02C219.73 172.565 220.589 172.878 221.482 172.918C222.375 172.957 223.258 172.722 224.012 172.243C224.766 171.764 225.354 171.065 225.696 170.24C226.038 169.416 226.118 168.507 225.925 167.635C225.731 166.764 225.274 165.974 224.615 165.371L222.465 142.539Z" fill="#FFCBA5"/>
<path d="M154.651 136.124L179.137 117.308C180.172 116.508 180.85 115.333 181.026 114.038C181.201 112.743 180.859 111.431 180.074 110.385C179.668 109.844 179.156 109.391 178.569 109.054C177.982 108.717 177.332 108.503 176.66 108.424C175.987 108.346 175.305 108.406 174.657 108.599C174.008 108.793 173.405 109.116 172.885 109.55L148.05 129.874L132.438 141.588C131.666 141.139 130.774 140.939 129.883 141.015C128.993 141.09 128.147 141.437 127.461 142.009C126.775 142.581 126.282 143.35 126.049 144.212C125.816 145.073 125.855 145.985 126.159 146.824C126.463 147.663 127.019 148.388 127.75 148.901C128.482 149.414 129.353 149.689 130.247 149.69C131.141 149.691 132.013 149.417 132.745 148.906C133.478 148.394 134.034 147.67 134.34 146.832L154.651 136.124Z" fill="#FFCBA5"/>
<path d="M174.608 140.45L173.529 164.519L207.418 157.165C204.534 147.493 202.572 145.843 204.74 139.113L174.608 140.45Z" fill="#FFCBA5"/>
<path d="M195.446 96.3247H184.154L179.304 104.61L176.994 104.483C175.863 104.421 174.732 104.589 173.67 104.978C172.607 105.367 171.635 105.968 170.813 106.745C169.991 107.522 169.336 108.458 168.888 109.496C168.441 110.534 168.21 111.652 168.21 112.783L171.057 117.189C171.057 117.189 165.965 126.049 173.3 130.408C173.3 130.408 171.992 138.621 173.3 138.532C174.608 138.444 177.621 136.773 174.608 138.444C171.595 140.116 171.82 140.34 172.209 140.729L172.599 141.119L204.283 146.431C204.283 146.431 205.21 140.298 205.309 139.204C205.409 138.11 204.74 140.784 205.409 138.11C206.079 135.436 207.083 136.438 206.079 135.436C205.075 134.433 212.587 122.008 209.5 117.189L214.449 112.369C214.449 107.746 207.013 103.999 202.383 103.999H201.79L195.446 96.3247Z" fill="#6A00BF"/>
<path d="M168.239 297.178H163.668L161.494 279.575L168.239 279.576L168.239 297.178Z" fill="#A0616A"/>
<path d="M154.444 303.911C154.446 304.422 154.65 304.912 155.012 305.274C155.373 305.636 155.863 305.84 156.375 305.844H164.979L165.246 305.292L166.463 302.785L166.934 305.292L167.038 305.844H170.284L170.237 305.288L169.372 294.927L168.24 294.857L163.349 294.568L162.147 294.495V297.588C161.236 298.557 154.081 302.217 154.444 303.911Z" fill="#2F2E41"/>
<path d="M236.164 285.224L232.32 287.693L220.954 274.064L226.627 270.42L236.164 285.224Z" fill="#A0616A"/>
<path d="M228.211 298.339C228.49 298.768 228.927 299.07 229.427 299.179C229.927 299.288 230.45 299.195 230.883 298.921L238.119 294.273L238.044 293.665L237.709 290.899L239.464 292.753L239.85 293.161L242.58 291.408L242.24 290.966L235.898 282.719L234.908 283.272L230.638 285.671L229.588 286.259L231.264 288.861C231.022 290.167 226.988 297.111 228.211 298.339Z" fill="#2F2E41"/>
<path d="M257.485 306.779L115.961 306.916C115.82 306.916 115.685 306.859 115.585 306.759C115.486 306.659 115.43 306.524 115.43 306.383C115.43 306.242 115.486 306.106 115.585 306.006C115.685 305.906 115.82 305.85 115.961 305.849L257.485 305.711C257.626 305.712 257.761 305.769 257.861 305.869C257.96 305.969 258.016 306.104 258.016 306.245C258.016 306.386 257.96 306.521 257.861 306.621C257.761 306.721 257.626 306.778 257.485 306.779Z" fill="#CACACA"/>
<path d="M206.887 154.445C206.887 154.445 185.224 165.887 173.766 158.081C173.766 158.081 171.26 170.202 170.256 171.205C169.251 172.207 167.651 172.644 168.786 173.763C169.921 174.882 170.553 176.393 168.395 178.312C166.238 180.23 164.087 179.622 166.167 181.597C168.247 183.573 159.877 232.046 159.877 232.046C159.877 232.046 161.216 277.123 159.877 278.486C158.538 279.85 156.748 280.155 158.48 281.841C160.212 283.527 160.212 282.219 160.212 284.544V286.87L161.004 289.181H171.875C171.875 289.181 174.498 286.138 171.875 283.495C169.251 280.852 172.673 280.129 173.473 277.649C174.273 275.169 175.612 277.844 174.273 275.169C172.934 272.495 172.291 273.004 172.278 271.245C172.264 269.486 192.017 200.622 192.017 200.622L194.41 238.738L223.187 280.481L231.658 274.137C231.658 274.137 225.491 265.469 226.933 264.277C228.375 263.085 222.682 261.591 224.478 260.246C226.273 258.902 221.951 257.547 223.58 255.765C225.209 253.983 221.336 249.492 219.092 249.492C216.848 249.492 213.699 242.005 213.699 242.005L218.4 182.86L206.887 154.445Z" fill="#2F2E41"/>
<path d="M183.927 71.9955C183.773 72.1964 182.552 72.0882 181.083 71.8741C178.179 71.4507 177.783 71.9538 175.612 73.9256C172.468 76.7819 174.256 94.2031 172.71 97.9779L172.211 98.3452C173.201 98.1563 174.174 97.8846 175.118 97.5328C175.652 95.8518 176.187 94.1653 176.726 92.4856C177.234 93.7925 177.554 95.165 177.675 96.5618C178.423 96.2675 179.166 95.5479 182.289 94.5828C183.862 93.5174 195.242 92.4461 196.705 91.9774C200.417 79.3641 194.434 74.2633 183.927 71.9955Z" fill="#2F2E41"/>
<path d="M187.769 91.4457C193.774 91.4457 198.643 86.5845 198.643 80.5879C198.643 74.5912 193.774 69.73 187.769 69.73C181.763 69.73 176.894 74.5912 176.894 80.5879C176.894 86.5845 181.763 91.4457 187.769 91.4457Z" fill="#FFCBA5"/>
<path d="M194.615 71.0386C194.002 70.9484 193.412 70.7419 192.877 70.4303C192.612 70.2703 192.397 70.0391 192.257 69.763C192.117 69.4869 192.058 69.1771 192.086 68.8689C192.22 68.0974 193.093 67.6368 193.876 67.6837C194.655 67.7959 195.396 68.0951 196.034 68.5557C195.964 67.8101 195.645 67.1097 195.128 66.567C194.611 66.0242 193.927 65.6706 193.185 65.5629C194.214 65.5075 195.284 65.4587 196.236 65.854C197.188 66.2494 197.982 67.2283 197.81 68.2435C199.411 68.0376 200.989 69.151 201.65 70.621C202.31 72.091 202.179 73.8174 201.652 75.34C201.599 75.5732 201.498 75.7924 201.353 75.9829C201.209 76.1735 201.025 76.3308 200.815 76.4442C200.276 76.6483 199.697 76.306 199.23 75.9687C196.792 74.2061 194.573 72.1599 192.62 69.8732" fill="#2F2E41"/>
<path d="M199.356 92.1311C198.895 92.3478 199.135 93.1541 198.777 93.5151C198.622 93.668 198.434 93.7844 198.228 93.8561C198.174 93.1832 198.017 92.5225 197.763 91.8971C197.716 91.7835 197.639 91.6564 197.518 91.6665C197.378 91.6832 197.341 91.867 197.337 92.0041C197.309 92.684 197.158 93.3533 196.892 93.9798C196.889 93.9865 196.885 93.9965 196.882 94.0032C196.778 93.9998 196.671 93.9965 196.571 93.9931C195.794 93.9631 194.073 91.9707 193.691 92.646C195.037 90.2625 196.678 86.6788 196.929 83.9543C197.016 83.3839 196.974 82.8013 196.805 82.2494C196.717 81.9749 196.552 81.7313 196.329 81.5476C196.107 81.3639 195.836 81.2478 195.55 81.2131C195.408 81.2067 195.267 81.2316 195.136 81.2859C195.006 81.3403 194.889 81.4228 194.794 81.5275C194.699 81.6323 194.628 81.7567 194.587 81.8919C194.546 82.0271 194.535 82.1698 194.555 82.3096L194.361 82.2829C192.56 80.8187 194.113 78.2747 192.018 77.2685C191.308 76.9275 186.962 78.0675 186.195 77.8669C186.179 77.0605 186.014 76.2639 185.71 75.5168C185.663 75.4032 185.586 75.2761 185.466 75.2862C185.325 75.3029 185.288 75.4867 185.285 75.6238C185.256 76.3037 185.106 76.973 184.839 77.5995C183.777 77.449 182.696 77.5058 181.656 77.7666C180.738 78.0073 179.868 78.4218 178.947 78.6425C178.492 78.7817 178.013 78.8268 177.54 78.7751C177.067 78.7234 176.609 78.5759 176.195 78.3416C175.027 77.5593 174.822 75.8277 175.405 74.5507C175.826 73.7313 176.396 72.9968 177.086 72.3845C177.611 71.8763 178.157 71.3883 178.703 70.9002C179.191 70.4623 179.68 70.0244 180.169 69.5864C180.784 69.0082 181.44 68.4742 182.131 67.9885C183.234 67.2665 184.473 66.7772 185.773 66.5507C187.072 66.3242 188.404 66.3653 189.687 66.6714C191.227 67.0391 193.286 66.521 194.696 67.2397C195.432 67.6175 197.063 69.065 197.709 69.5798C199.363 70.8935 198.244 69.823 200.053 70.5826C204.366 72.3939 202.459 90.6728 199.356 92.1311Z" fill="#2F2E41"/>
<path d="M78.9533 171.382C116.198 171.382 146.391 141.234 146.391 104.045C146.391 66.8565 116.198 36.709 78.9533 36.709C41.7084 36.709 11.5154 66.8565 11.5154 104.045C11.5154 141.234 41.7084 171.382 78.9533 171.382Z" fill="white"/>
<path d="M78.9534 172.054C41.3968 172.054 10.8423 141.545 10.8423 104.046C10.8423 66.5456 41.3969 36.0371 78.9534 36.0371C116.51 36.0371 147.064 66.5456 147.064 104.046C147.064 141.545 116.51 172.054 78.9534 172.054ZM78.9534 37.3814C42.1392 37.3814 12.1886 67.2869 12.1886 104.046C12.1886 140.804 42.1392 170.71 78.9534 170.71C115.768 170.71 145.718 140.804 145.718 104.046C145.718 67.2869 115.767 37.3814 78.9534 37.3814Z" fill="#F4F4F5"/>
<path d="M69.7536 139.091C68.589 139.091 67.4405 138.82 66.3989 138.3C65.3574 137.78 64.4515 137.024 63.753 136.094L45.3549 111.6C44.7638 110.813 44.3338 109.917 44.0894 108.965C43.8449 108.012 43.7908 107.02 43.9302 106.046C44.0695 105.073 44.3996 104.136 44.9015 103.29C45.4034 102.443 46.0674 101.704 46.8555 101.114C47.6436 100.524 48.5404 100.094 49.4947 99.8501C50.4489 99.606 51.442 99.552 52.4172 99.6911C53.3924 99.8303 54.3306 100.16 55.1782 100.661C56.0259 101.162 56.7663 101.825 57.3574 102.612L69.394 118.636L100.309 72.3341C101.413 70.6825 103.129 69.5363 105.079 69.1475C107.029 68.7586 109.054 69.159 110.709 70.2605C112.364 71.362 113.513 73.0745 113.903 75.0216C114.294 76.9687 113.894 78.991 112.792 80.6439L75.996 135.755C75.3304 136.752 74.4351 137.575 73.3853 138.155C72.3355 138.734 71.1617 139.055 69.9624 139.088C69.8928 139.089 69.8232 139.091 69.7536 139.091Z" fill="#F4F4F5"/>
<path d="M148.434 40.916C148.622 39.6286 147.271 38.3668 145.418 38.0975C143.565 37.8282 141.91 38.6536 141.722 39.941C141.535 41.2283 142.885 42.4902 144.739 42.7595C146.592 43.0288 148.247 42.2034 148.434 40.916Z" fill="#990ECA"/>
<path d="M170.501 38.7661C170.688 37.4788 169.338 36.2169 167.484 35.9476C165.631 35.6784 163.976 36.5037 163.789 37.7911C163.601 39.0785 164.952 40.3403 166.805 40.6096C168.658 40.8789 170.313 40.0535 170.501 38.7661Z" fill="#3F3D56"/>
<path d="M142.392 23.0786C142.579 21.7912 141.229 20.5294 139.375 20.2601C137.522 19.9908 135.867 20.8162 135.68 22.1036C135.492 23.3909 136.843 24.6528 138.696 24.9221C140.549 25.1914 142.204 24.366 142.392 23.0786Z" fill="#FF6584"/>
<path d="M132.803 15.7717C132.812 14.5899 132.152 13.6267 131.328 13.6205C130.505 13.6143 129.83 14.5673 129.821 15.7492C129.812 16.9311 130.473 17.8942 131.296 17.9004C132.119 17.9066 132.794 16.9536 132.803 15.7717Z" fill="#990ECA"/>
<path d="M129.551 2.16234C129.56 0.98048 128.9 0.0173468 128.077 0.0111298C127.253 0.00491276 126.579 0.957966 126.57 2.13983C126.561 3.32169 127.221 4.28483 128.044 4.29104C128.868 4.29726 129.543 3.34421 129.551 2.16234Z" fill="#3F3D56"/>
<path d="M154.838 26.114C154.847 24.9321 154.186 23.969 153.363 23.9628C152.54 23.9566 151.865 24.9096 151.856 26.0915C151.847 27.2734 152.507 28.2365 153.331 28.2427C154.154 28.2489 154.829 27.2959 154.838 26.114Z" fill="#990ECA"/>
<path d="M144.174 31.43C144.183 30.2481 143.523 29.285 142.699 29.2787C141.876 29.2725 141.201 30.2256 141.192 31.4074C141.183 32.5893 141.844 33.5524 142.667 33.5586C143.49 33.5648 144.165 32.6118 144.174 31.43Z" fill="#FF6584"/>
<path d="M159.018 41.2561C159.027 40.0742 158.367 39.1111 157.543 39.1049C156.72 39.0987 156.045 40.0517 156.036 41.2336C156.027 42.4155 156.688 43.3786 157.511 43.3848C158.334 43.391 159.009 42.438 159.018 41.2561Z" fill="#3F3D56"/>
<path d="M21.8808 200.438C22.0684 199.151 20.7179 197.889 18.8645 197.619C17.0111 197.35 15.3566 198.176 15.169 199.463C14.9814 200.75 16.3318 202.012 18.1852 202.281C20.0386 202.551 21.6932 201.725 21.8808 200.438Z" fill="#990ECA"/>
<path d="M43.9476 198.288C44.1352 197.001 42.7848 195.739 40.9314 195.47C39.078 195.2 37.4235 196.026 37.2359 197.313C37.0483 198.6 38.3987 199.862 40.2521 200.132C42.1055 200.401 43.76 199.575 43.9476 198.288Z" fill="#3F3D56"/>
<path d="M15.8383 182.6C16.0259 181.313 14.6755 180.051 12.8221 179.782C10.9687 179.512 9.31412 180.338 9.12653 181.625C8.93894 182.912 10.2893 184.174 12.1427 184.444C13.9961 184.713 15.6507 183.887 15.8383 182.6Z" fill="#FF6584"/>
<path d="M6.24975 175.294C6.2587 174.112 5.59845 173.149 4.77504 173.142C3.95164 173.136 3.27687 174.089 3.26792 175.271C3.25896 176.453 3.91922 177.416 4.74263 177.422C5.56604 177.429 6.24079 176.476 6.24975 175.294Z" fill="#990ECA"/>
<path d="M2.99802 161.684C3.00697 160.502 2.34673 159.539 1.52332 159.533C0.699914 159.526 0.0251568 160.479 0.0162063 161.661C0.00725583 162.843 0.667501 163.806 1.49091 163.813C2.31431 163.819 2.98907 162.866 2.99802 161.684Z" fill="#3F3D56"/>
<path d="M28.2842 185.635C28.2931 184.454 27.6328 183.49 26.8094 183.484C25.986 183.478 25.3113 184.431 25.3023 185.613C25.2934 186.795 25.9536 187.758 26.777 187.764C27.6004 187.77 28.2752 186.817 28.2842 185.635Z" fill="#990ECA"/>
<path d="M17.6206 190.952C17.6296 189.77 16.9693 188.807 16.1459 188.801C15.3225 188.794 14.6477 189.748 14.6388 190.929C14.6298 192.111 15.2901 193.074 16.1135 193.081C16.9369 193.087 17.6117 192.134 17.6206 190.952Z" fill="#FF6584"/>
<path d="M32.4646 200.778C32.4735 199.596 31.8133 198.633 30.9899 198.626C30.1665 198.62 29.4917 199.573 29.4828 200.755C29.4738 201.937 30.134 202.9 30.9574 202.906C31.7808 202.912 32.4556 201.959 32.4646 200.778Z" fill="#3F3D56"/>
</svg>
