<svg width="300" height="292" viewBox="0 0 300 292" fill="none" xmlns="http://www.w3.org/2000/svg">
<g clip-path="url(#clip0_530_7874)">
<path d="M191.345 65.4561H175.382V201.389C175.382 203.522 174.962 205.634 174.145 207.604C173.328 209.575 172.13 211.365 170.62 212.873C169.11 214.381 167.318 215.577 165.345 216.393C163.373 217.21 161.258 217.63 159.123 217.63H37.085V217.785C37.085 219.918 37.5056 222.03 38.3226 224C39.1397 225.971 40.3374 227.761 41.8472 229.269C43.357 230.777 45.1494 231.973 47.122 232.789C49.0947 233.606 51.2089 234.026 53.3441 234.026H191.345C193.48 234.026 195.594 233.606 197.567 232.789C199.539 231.973 201.332 230.777 202.842 229.269C204.351 227.761 205.549 225.971 206.366 224C207.183 222.03 207.604 219.918 207.604 217.785V81.6967C207.604 77.3894 205.891 73.2585 202.842 70.2128C199.792 67.1671 195.657 65.4561 191.345 65.4561Z" fill="#F2F2F2"/>
<path d="M267.013 281.475C267.296 281.488 267.576 281.413 267.815 281.262C268.054 281.111 268.24 280.89 268.349 280.63C268.459 280.369 268.485 280.081 268.425 279.805C268.365 279.529 268.221 279.278 268.013 279.086L267.919 278.711C267.931 278.68 267.944 278.65 267.956 278.62C268.241 277.949 268.718 277.376 269.327 276.974C269.937 276.573 270.652 276.36 271.382 276.363C272.112 276.365 272.825 276.583 273.431 276.99C274.038 277.396 274.511 277.972 274.79 278.646C275.908 281.335 277.331 284.029 277.682 286.872C277.836 288.129 277.771 289.403 277.489 290.637C280.115 284.917 281.478 278.699 281.487 272.407C281.487 270.828 281.399 269.25 281.224 267.68C281.078 266.394 280.877 265.116 280.619 263.848C279.212 256.967 276.191 250.518 271.803 245.03C269.68 243.872 267.963 242.093 266.883 239.931C266.492 239.154 266.216 238.324 266.063 237.468C266.302 237.499 266.966 233.855 266.785 233.632C267.119 233.126 267.716 232.874 268.081 232.38C269.894 229.925 272.392 230.354 273.696 233.69C276.482 235.095 276.509 237.424 274.8 239.664C273.712 241.089 273.563 243.017 272.608 244.543C272.707 244.669 272.809 244.79 272.907 244.916C274.701 247.221 276.265 249.696 277.577 252.305C277.258 249.382 277.638 246.424 278.687 243.676C279.75 241.115 281.742 238.958 283.496 236.745C283.96 236.15 284.59 235.706 285.307 235.469C286.023 235.232 286.794 235.212 287.522 235.412C288.25 235.613 288.901 236.024 289.395 236.595C289.889 237.165 290.202 237.869 290.295 238.617C290.299 238.65 290.302 238.682 290.306 238.715C290.045 238.862 289.79 239.017 289.541 239.182C289.227 239.392 288.984 239.691 288.844 240.04C288.703 240.389 288.672 240.773 288.753 241.141C288.835 241.509 289.026 241.843 289.301 242.101C289.576 242.358 289.923 242.527 290.295 242.584L290.333 242.59C290.241 243.528 290.076 244.458 289.843 245.371C292.093 254.064 287.234 257.231 280.297 257.373C280.144 257.451 279.994 257.53 279.841 257.604C281.159 261.333 281.985 265.217 282.299 269.159C282.477 271.485 282.467 273.821 282.268 276.144L282.28 276.062C282.782 273.478 284.162 271.146 286.187 269.461C289.194 266.994 293.441 266.085 296.685 264.102C297.03 263.881 297.431 263.763 297.84 263.762C298.25 263.761 298.651 263.877 298.997 264.097C299.343 264.316 299.619 264.63 299.792 265.001C299.965 265.371 300.029 265.784 299.975 266.19L299.962 266.276C299.478 266.473 299.007 266.7 298.552 266.955C298.291 267.102 298.036 267.257 297.787 267.422C297.473 267.631 297.23 267.93 297.09 268.28C296.949 268.629 296.918 269.013 296.999 269.381C297.081 269.749 297.272 270.083 297.547 270.341C297.822 270.598 298.169 270.767 298.541 270.824L298.579 270.83C298.607 270.834 298.63 270.838 298.658 270.842C297.832 272.812 296.672 274.626 295.23 276.203C293.823 283.792 287.779 284.512 281.314 282.302H281.31C280.601 285.381 279.573 288.378 278.243 291.245H267.288C267.248 291.123 267.213 290.998 267.178 290.876C268.192 290.94 269.21 290.879 270.209 290.696C269.396 289.7 268.584 288.696 267.771 287.699C267.753 287.681 267.736 287.661 267.72 287.64C267.307 287.131 266.891 286.625 266.479 286.115L266.479 286.114C266.457 284.551 266.636 282.992 267.013 281.475L267.013 281.475Z" fill="#F2F2F2"/>
<path d="M146.349 46.9654C146.749 47.5707 147.275 48.082 147.893 48.4639C148.51 48.8458 149.203 49.0893 149.924 49.1774C150.644 49.2655 151.376 49.1962 152.067 48.9742C152.758 48.7523 153.393 48.383 153.927 47.8919L176.704 58.1563L181.095 52.5614L153.954 40.5678C153.059 39.7309 151.888 39.2509 150.663 39.2185C149.438 39.1862 148.244 39.6039 147.306 40.3925C146.369 41.1811 145.754 42.2858 145.577 43.4972C145.401 44.7086 145.675 45.9426 146.349 46.9654H146.349Z" fill="#FFCBA5"/>
<path d="M244.097 53.3655L246.356 66.1521C246.461 66.7487 246.441 67.3606 246.295 67.9487C246.15 68.5368 245.883 69.088 245.512 69.567C245.141 70.046 244.673 70.4421 244.14 70.73C243.606 71.0179 243.018 71.1911 242.414 71.2386L204.028 74.2537L158.908 54.0832L164.297 43.8647L203.466 56.2542L244.097 53.3655Z" fill="#6A00BF"/>
<path d="M154.26 44.2017H16.2591C7.27944 44.2017 0 51.4728 0 60.4423V196.531C0 205.5 7.27944 212.771 16.2591 212.771H154.26C163.239 212.771 170.519 205.5 170.519 196.531V60.4423C170.519 51.4728 163.239 44.2017 154.26 44.2017Z" fill="#F2F2F2"/>
<path d="M16.2592 47.5415C14.5631 47.5415 12.8837 47.8752 11.3167 48.5235C9.74972 49.1718 8.32594 50.1221 7.12664 51.32C5.92733 52.518 4.97598 53.9401 4.32693 55.5053C3.67787 57.0705 3.34381 58.7481 3.34381 60.4422V196.531C3.34381 199.952 4.70453 203.234 7.12664 205.653C9.54874 208.072 12.8338 209.432 16.2592 209.432H104.335C112.587 209.432 120.758 207.808 128.382 204.653C136.007 201.499 142.934 196.876 148.769 191.047C154.605 185.218 159.233 178.299 162.391 170.683C165.55 163.068 167.175 154.905 167.175 146.662V60.4422C167.175 58.7481 166.841 57.0705 166.192 55.5053C165.543 53.9401 164.591 52.518 163.392 51.32C162.193 50.1221 160.769 49.1718 159.202 48.5235C157.635 47.8752 155.956 47.5415 154.26 47.5415H16.2592Z" fill="white"/>
<path d="M123.837 88.8424H46.3801C45.6693 88.8424 44.9877 88.5604 44.4851 88.0584C43.9826 87.5564 43.7002 86.8755 43.7002 86.1656C43.7002 85.4556 43.9826 84.7748 44.4851 84.2728C44.9877 83.7708 45.6693 83.4888 46.3801 83.4888H123.837C124.548 83.4888 125.229 83.7708 125.732 84.2728C126.234 84.7748 126.517 85.4556 126.517 86.1656C126.517 86.8755 126.234 87.5564 125.732 88.0584C125.229 88.5604 124.548 88.8424 123.837 88.8424Z" fill="#F2F2F2"/>
<path d="M123.837 145.924H46.3801C45.6693 145.924 44.9877 145.642 44.4851 145.14C43.9826 144.638 43.7002 143.958 43.7002 143.248C43.7002 142.538 43.9826 141.857 44.4851 141.355C44.9877 140.853 45.6693 140.571 46.3801 140.571H123.837C124.548 140.571 125.229 140.853 125.732 141.355C126.234 141.857 126.517 142.538 126.517 143.248C126.517 143.958 126.234 144.638 125.732 145.14C125.229 145.642 124.548 145.924 123.837 145.924Z" fill="#F2F2F2"/>
<path d="M155.29 117.402H14.9265C14.2158 117.402 13.5342 117.12 13.0316 116.618C12.529 116.116 12.2467 115.435 12.2467 114.725C12.2467 114.015 12.529 113.334 13.0316 112.832C13.5342 112.33 14.2158 112.048 14.9265 112.048H155.29C156.001 112.048 156.683 112.33 157.185 112.832C157.688 113.334 157.97 114.015 157.97 114.725C157.97 115.435 157.688 116.116 157.185 116.618C156.683 117.12 156.001 117.402 155.29 117.402Z" fill="#F2F2F2"/>
<path d="M239.247 109.724L225.265 139.48L279.054 134.038L267.826 105.473L239.247 109.724Z" fill="#FFCBA5"/>
<path d="M251.753 280.749L246.653 280.706L244.396 260.599L251.922 260.662L251.753 280.749Z" fill="#FFCBA5"/>
<path d="M235.417 288.849C235.413 289.453 235.648 290.034 236.072 290.465C236.496 290.895 237.073 291.14 237.678 291.146L247.818 291.231L249.593 287.637L250.245 291.249L254.071 291.284L253.104 278.4L251.773 278.311L246.344 277.937L244.592 277.82L244.562 281.466L236.416 286.984C236.111 287.191 235.861 287.469 235.687 287.794C235.513 288.118 235.42 288.481 235.417 288.849Z" fill="#2F2E41"/>
<path d="M195.314 280.771L190.451 279.233L194.208 259.352L201.384 261.621L195.314 280.771Z" fill="#FFCBA5"/>
<path d="M177.316 283.72C177.135 284.296 177.189 284.921 177.467 285.457C177.745 285.993 178.225 286.397 178.802 286.58L188.469 289.636L191.223 286.722L190.783 290.366L194.43 291.522L197.297 278.923L196.05 278.448L190.971 276.497L189.331 275.871L188.229 279.347L178.82 282.231C178.467 282.339 178.146 282.531 177.885 282.791C177.623 283.05 177.428 283.369 177.316 283.72Z" fill="#2F2E41"/>
<path d="M276.604 125.67L227.697 134.622C227.697 134.622 219.852 140.483 221.95 142.582C224.049 144.681 224.374 144.356 222.996 145.733C221.617 147.11 218.636 148.951 218.607 150.156C218.577 151.361 196.691 205.407 196.691 205.407C196.691 205.407 199.123 204.193 197.299 206.015C195.475 207.836 195.475 209.342 195.475 209.342L186.964 266.741L200.787 267.554L214.322 215.224L244.512 166.337C244.512 166.337 247.508 209.932 247.633 212.831C247.759 215.731 249.583 212.087 247.759 215.731C245.935 219.374 244.719 216.945 245.935 219.374C247.151 221.803 241.555 271.255 241.555 271.255H254.172L281.232 168.755C281.232 168.755 290.859 139.452 276.604 125.67Z" fill="#2F2E41"/>
<path d="M262.197 43.6832L242.606 41.6499L237.53 48.2322L231.617 51.3779C229.115 52.7091 227.049 54.7322 225.667 57.205C224.286 59.6778 223.647 62.4959 223.826 65.322L230.736 105.473C230.736 105.473 224.899 118.602 228.912 121.87C232.926 125.137 225.81 133.23 234.384 129.157C242.958 125.084 279.98 129.764 279.98 129.764L272.077 107.295L277.981 85.2168L278.631 66.7043C278.752 63.2449 277.724 59.8426 275.708 57.0277C273.691 54.2128 270.799 52.1434 267.481 51.1421L266.656 50.8929L262.197 43.6832Z" fill="#6A00BF"/>
<path d="M289.168 28.6808C289.296 34.1966 287.233 39.5374 284.268 44.2285C283.387 41.4899 281.804 38.9975 280.152 36.6214C280.985 41.7614 280.098 47.0322 277.629 51.6181C277.542 51.6802 277.452 51.738 277.359 51.7911C274.943 53.243 271.879 53.8311 269.265 52.7825C274.666 46.9669 275.353 37.3314 270.825 30.8083C269.543 28.9574 267.885 27.3204 267.091 25.214C265.837 21.8531 267.042 18.1527 267.803 14.6486C268.513 11.3873 268.638 7.50645 266.448 5.11637C266.681 4.78236 267 4.51649 267.371 4.346C267.742 4.17551 268.151 4.10653 268.557 4.14613C269.908 4.33668 270.891 5.50922 271.517 6.71686C272.143 7.92446 272.556 9.2629 273.428 10.306C275.044 12.2583 277.796 12.7199 280.115 13.7488C285.731 16.2475 289.033 22.5433 289.168 28.6808Z" fill="#2F2E41"/>
<path d="M144.48 291.277C144.48 291.372 144.498 291.466 144.535 291.554C144.571 291.642 144.624 291.722 144.691 291.789C144.759 291.856 144.838 291.909 144.926 291.945C145.014 291.982 145.108 292 145.204 292H299.191C299.383 292 299.567 291.924 299.703 291.788C299.839 291.653 299.915 291.469 299.915 291.277C299.915 291.086 299.839 290.902 299.703 290.766C299.567 290.631 299.383 290.555 299.191 290.555H145.204C145.108 290.554 145.014 290.573 144.926 290.609C144.838 290.645 144.759 290.699 144.691 290.766C144.624 290.833 144.571 290.913 144.535 291C144.498 291.088 144.48 291.182 144.48 291.277Z" fill="#CCCCCC"/>
<path d="M290.381 156.52C293.402 156.52 295.852 154.073 295.852 151.055C295.852 148.036 293.402 145.589 290.381 145.589C287.359 145.589 284.909 148.036 284.909 151.055C284.909 154.073 287.359 156.52 290.381 156.52Z" fill="#6A00BF"/>
<path d="M241.895 25.5275C242.216 24.4056 240.004 31.2639 241.071 31.3878C245.933 31.9448 252.607 34.845 255.993 36.198C256.145 36.1803 256.298 36.1626 256.446 36.1405C256.809 36.1007 257.163 36.0432 257.513 35.9769C265.397 34.4868 268.429 22.3894 268.429 22.2789C268.429 21.735 267.122 6.79797 265.064 6.57693C264.523 6.51833 263.98 6.48881 263.436 6.48849H258.328C257.271 6.26098 256.199 6.10586 255.121 6.02424H255.112C244.829 5.24162 236.72 11.5025 237.478 19.1208C237.482 19.1296 237.491 19.1385 237.496 19.1473C237.716 19.4745 237.909 19.784 238.079 20.0803C238.245 20.3588 238.384 20.6241 238.505 20.8761C239.442 22.8216 237.033 25.2696 238.63 25.7265C240.755 26.3343 233.042 46.3088 241.452 46.3088C237.361 47.4706 241.01 28.6226 241.895 25.5275Z" fill="#2F2E41"/>
<path d="M251.075 37.2476C257.755 37.2476 263.17 31.8389 263.17 25.167C263.17 18.4951 257.755 13.0864 251.075 13.0864C244.396 13.0864 238.981 18.4951 238.981 25.167C238.981 31.8389 244.396 37.2476 251.075 37.2476Z" fill="#FFCBA5"/>
<path d="M237.478 19.7792C237.68 19.8853 237.877 19.9825 238.079 20.0798C238.29 20.1815 238.501 20.2832 238.711 20.3761C242.761 22.211 246.057 22.4144 248.058 19.7792C248.111 18.3926 248.423 17.0281 248.977 15.7556C248.879 17.1776 249.254 18.5921 250.044 19.7792H254.072C258.22 22.5293 260.35 22.8167 257.471 31.8455C256.668 34.3613 253.476 49.001 254.732 51.172C255.095 51.1322 258.96 35.0972 259.31 35.0309C267.194 33.5409 272.204 20.5662 271.562 19.8322C271.566 17.745 271.085 15.6854 270.159 13.8145C268.987 11.4443 267.16 9.45886 264.894 8.09308C263.543 7.43888 262.135 6.91048 260.687 6.51459C260.651 6.50573 260.62 6.49688 260.584 6.48806C260.14 6.36867 259.687 6.25813 259.234 6.16528C258.298 5.96791 257.352 5.82471 256.399 5.7364C256.332 5.73197 256.265 5.72754 256.202 5.72754C255.822 5.72843 255.449 5.8307 255.121 6.0238C255.117 6.0238 255.117 6.0282 255.112 6.0282C254.878 6.16478 254.674 6.34667 254.511 6.5632C254.225 6.92752 254.07 7.37779 254.072 7.84102H249.587C249.421 7.84102 249.255 7.84544 249.089 7.85428C246.096 7.95645 243.249 9.17065 241.104 11.2593C238.96 13.3479 237.673 16.1606 237.496 19.1469C237.482 19.3591 237.478 19.5669 237.478 19.7792Z" fill="#2F2E41"/>
<path d="M263.921 15.9175C268.322 15.9175 271.889 12.3542 271.889 7.95875C271.889 3.56325 268.322 0 263.921 0C259.521 0 255.954 3.56325 255.954 7.95875C255.954 12.3542 259.521 15.9175 263.921 15.9175Z" fill="#2F2E41"/>
<path d="M290.442 153.308C290.831 152.696 291.082 152.006 291.178 151.287C291.274 150.568 291.212 149.837 290.997 149.144C290.782 148.452 290.419 147.814 289.933 147.275C289.447 146.736 288.85 146.309 288.182 146.023L288.222 121.064L281.313 119.356L281.483 149.001C281.085 150.159 281.127 151.422 281.599 152.552C282.072 153.681 282.943 154.598 284.047 155.129C285.151 155.66 286.412 155.768 287.591 155.432C288.77 155.097 289.784 154.341 290.442 153.308V153.308Z" fill="#FFCBA5"/>
<path d="M256.229 61.6228L266.98 54.3245C267.482 53.9841 268.049 53.7521 268.646 53.6436C269.242 53.535 269.855 53.5523 270.445 53.6943C271.034 53.8362 271.587 54.0998 272.069 54.468C272.551 54.8362 272.95 55.3009 273.241 55.8323L291.725 89.5708L291.795 138.947L280.255 138.225L275.518 97.4599L256.229 61.6228Z" fill="#6A00BF"/>
<path d="M173.658 173.602H58.7557C56.2565 173.602 53.8597 174.594 52.0925 176.359C50.3253 178.124 49.3325 180.518 49.3325 183.015C49.3325 185.511 50.3253 187.905 52.0925 189.67C53.8597 191.435 56.2565 192.427 58.7557 192.427H173.658C176.158 192.427 178.554 191.435 180.322 189.67C182.089 187.905 183.082 185.511 183.082 183.015C183.082 180.518 182.089 178.124 180.322 176.359C178.554 174.594 176.158 173.602 173.658 173.602Z" fill="white"/>
<path d="M173.658 193.034H58.7557C56.0953 193.034 53.5438 191.979 51.6626 190.1C49.7814 188.22 48.7245 185.672 48.7245 183.014C48.7245 180.357 49.7814 177.808 51.6626 175.929C53.5438 174.05 56.0953 172.995 58.7557 172.995H173.658C176.319 172.995 178.87 174.05 180.752 175.929C182.633 177.808 183.69 180.357 183.69 183.014C183.69 185.672 182.633 188.22 180.752 190.1C178.87 191.979 176.319 193.034 173.658 193.034ZM58.7557 174.209C56.4178 174.209 54.1756 175.137 52.5224 176.788C50.8692 178.439 49.9404 180.679 49.9404 183.014C49.9404 185.35 50.8692 187.589 52.5224 189.241C54.1756 190.892 56.4178 191.82 58.7557 191.82H173.658C175.996 191.82 178.239 190.892 179.892 189.241C181.545 187.589 182.474 185.35 182.474 183.014C182.474 180.679 181.545 178.439 179.892 176.788C178.239 175.137 175.996 174.209 173.658 174.209H58.7557Z" fill="#6A00BF"/>
<path d="M180.434 214.679H129.727C129.016 214.679 128.334 214.397 127.832 213.895C127.329 213.393 127.047 212.712 127.047 212.002C127.047 211.292 127.329 210.611 127.832 210.109C128.334 209.607 129.016 209.325 129.727 209.325H180.434C181.144 209.325 181.826 209.607 182.329 210.109C182.831 210.611 183.114 211.292 183.114 212.002C183.114 212.712 182.831 213.393 182.329 213.895C181.826 214.397 181.144 214.679 180.434 214.679Z" fill="#6A00BF"/>
</g>
<defs>
<clipPath id="clip0_530_7874">
<rect width="300" height="292" fill="white"/>
</clipPath>
</defs>
</svg>
