<svg width="320" height="320" viewBox="0 0 320 320" fill="none" xmlns="http://www.w3.org/2000/svg">
<path d="M320 244.735H0V244.895H320V244.735Z" fill="#E6E6E6"/>
<path d="M79.8888 254.418H58.6907V254.578H79.8888V254.418Z" fill="#E6E6E6"/>
<path d="M51.982 254.418H39.6985V254.578H51.982V254.418Z" fill="#E6E6E6"/>
<path d="M134.755 256.773H122.472V256.933H134.755V256.773Z" fill="#E6E6E6"/>
<path d="M198.794 260.346H171.151V260.506H198.794V260.346Z" fill="#E6E6E6"/>
<path d="M165.453 260.346H161.4V260.506H165.453V260.346Z" fill="#E6E6E6"/>
<path d="M290.14 256.773H230.187V256.933H290.14V256.773Z" fill="#E6E6E6"/>
<path d="M171.135 190.065H157.062V245.895H171.135V190.065Z" fill="#E0E0E0"/>
<path d="M168.463 245.896H171.135V238.292H165.66L168.463 245.896Z" fill="#FAFAFA"/>
<path d="M109.468 190.065H95.3953V245.895H109.468V190.065Z" fill="#E0E0E0"/>
<path d="M171.136 190.065H107.135V241.23H171.136V190.065Z" fill="#FAFAFA"/>
<path d="M168.815 192.581V206.117H109.456V192.581H168.815ZM169.062 192.333H109.208V206.365H169.062V192.333Z" fill="#E0E0E0"/>
<path d="M109.808 245.896H107.135V238.292H112.611L109.808 245.896Z" fill="#FAFAFA"/>
<path d="M137.72 199.349C137.72 200.13 138.353 200.764 139.135 200.764C139.917 200.764 140.551 200.131 140.551 199.349C140.551 198.567 139.917 197.933 139.135 197.933C138.354 197.934 137.72 198.567 137.72 199.349Z" fill="#E6E6E6"/>
<path d="M168.815 208.879V222.416H109.456V208.879H168.815ZM169.062 208.632H109.208V222.664H169.062V208.632Z" fill="#E0E0E0"/>
<path d="M137.72 215.648C137.72 216.429 138.353 217.063 139.135 217.063C139.917 217.063 140.551 216.43 140.551 215.648C140.551 214.866 139.917 214.232 139.135 214.232C138.354 214.233 137.72 214.866 137.72 215.648Z" fill="#E6E6E6"/>
<path d="M168.815 225.178V238.715H109.456V225.178H168.815ZM169.062 224.931H109.208V238.963H169.062V224.931Z" fill="#E0E0E0"/>
<path d="M137.72 231.947C137.72 232.728 138.353 233.363 139.135 233.363C139.917 233.363 140.551 232.729 140.551 231.947C140.551 231.165 139.917 230.531 139.135 230.531C138.354 230.531 137.72 231.165 137.72 231.947Z" fill="#E6E6E6"/>
<path d="M65.3281 133.036H59.3915C59.3915 133.036 60.4219 138.524 60.4219 141.754C60.4219 144.983 55.906 157.642 62.3598 157.642C68.8129 157.642 64.2977 144.982 64.2977 141.754C64.2971 138.523 65.3281 133.036 65.3281 133.036Z" fill="#E0E0E0"/>
<path d="M42.7539 146.015V149.872C42.7539 154.145 46.2502 157.642 50.5241 157.642H54.3814C58.6547 157.642 62.151 154.145 62.151 149.872V146.015H42.7539Z" fill="#F5F5F5"/>
<path d="M125.227 181.93C125.227 186.405 130.239 190.066 136.364 190.066H141.893C148.019 190.066 153.031 186.405 153.031 181.93H125.227Z" fill="#E0E0E0"/>
<path d="M221.195 182.933C217.842 185.67 213.213 190.683 208.972 197.735C206.147 202.431 204.445 207.352 203.697 213.853C203.713 206.494 203.736 198.587 203.762 191.124C204.614 189.204 206.559 184.778 207.955 181.281C212.612 169.613 214.347 166.744 218.536 156.68C224.122 143.257 229.847 127.329 228.208 128.602C224.868 131.195 212.067 155.165 210.683 158.596C205.924 170.397 204.599 178.999 203.775 187.301C203.801 180.292 203.828 173.856 203.855 168.89C203.941 152.693 204.217 147.465 204.351 145.853C204.869 145.034 205.481 144.079 205.837 143.565C208.843 139.217 210.003 135.513 212.836 129.029C216.851 119.84 220.308 103.527 219.298 104.35C215.089 107.776 211.769 115.141 207.407 124.527C203.046 133.913 204.292 139.31 203.427 147.326C203.245 148.899 203.106 154.835 203.006 163.062C201.874 154.297 199.752 148.521 195.88 143.273C191.117 136.817 186.51 132.456 183.129 130.178C179.749 127.901 188.967 143.759 193.375 150.681C197.301 156.845 200.917 162.284 202.956 167.641C202.848 178.791 202.798 192.91 202.798 206.054C201.787 200.072 200.136 193.632 197.933 188.644C195.286 182.652 191.213 173.461 187.972 170.343C187.193 169.595 191.361 187.47 194.036 192.223C196.711 196.976 198.674 201.456 200.358 204.15C200.751 204.779 202.054 207.203 202.799 208.597C202.806 224.642 202.888 238.8 203.027 243.619H203.72C203.673 242.375 203.665 234.214 203.68 223.411C205.349 217.545 209.167 210.852 212.317 204.746C215.755 198.08 224.55 180.195 221.195 182.933Z" fill="#FFD233"/>
<path d="M213.409 253.449H193.349L191.835 233.786H214.923L213.409 253.449Z" fill="#F0F0F0"/>
<path d="M216.418 236.077H190.34L189.593 229.443H217.165L216.418 236.077Z" fill="#F5F5F5"/>
<path d="M116.793 71.8062H90.1816V101.027H116.793V71.8062Z" fill="#E0E0E0"/>
<path d="M119.676 71.8062H92.188V101.027H119.676V71.8062Z" fill="#F5F5F5"/>
<path d="M117.373 98.7251V74.1094H94.4911V98.7251H117.373Z" fill="white"/>
<path d="M105.932 80.1938L99.6741 91.0335H112.19L105.932 80.1938Z" fill="#F5F5F5"/>
<path d="M160 273.639C228.533 273.639 284.089 270.394 284.089 266.392C284.089 262.39 228.533 259.146 160 259.146C91.4677 259.146 35.9111 262.39 35.9111 266.392C35.9111 270.394 91.4677 273.639 160 273.639Z" fill="#F5F5F5"/>
<path d="M156.72 45.165H152.632V45.823H156.72V45.165Z" fill="#6D07D4"/>
<path d="M209.666 71.2518L209.171 82.2334L209.828 82.263L210.322 71.2813L209.666 71.2518Z" fill="#6D07D4"/>
<path d="M208.392 48.1245H132.873L125.843 205.385H201.362L208.392 48.1245Z" fill="#6D07D4"/>
<path opacity="0.56" d="M206.138 50.2827H130.618L123.588 207.543H199.108L206.138 50.2827Z" fill="#FAFAFA"/>
<path opacity="0.07" d="M203.883 52.4404H128.364L121.334 209.701H196.853L203.883 52.4404Z" fill="#6D07D4"/>
<path d="M195.287 121.028H130.828L130.29 133.064H194.749L195.287 121.028Z" fill="white"/>
<path d="M166.281 112.25H131.22L130.98 117.635H166.04L166.281 112.25Z" fill="#6D07D4"/>
<path d="M193.835 153.503H129.376L128.838 165.539H193.297L193.835 153.503Z" fill="white"/>
<path opacity="0.47" d="M182.014 181.783H138.668L138.023 196.208H181.369L182.014 181.783Z" fill="#6D07D4"/>
<path d="M179.115 198.443H135.77C135.749 198.443 135.729 198.434 135.714 198.419C135.7 198.404 135.693 198.384 135.694 198.363L136.339 183.938C136.34 183.897 136.374 183.865 136.415 183.865H179.761C179.781 183.865 179.801 183.874 179.816 183.889C179.83 183.904 179.837 183.924 179.836 183.945L179.191 198.37C179.19 198.411 179.156 198.443 179.115 198.443ZM135.849 198.29H179.042L179.68 184.018H136.486L135.849 198.29Z" fill="white"/>
<path d="M158.706 144.726H129.768L129.528 150.111H158.465L158.706 144.726Z" fill="#6D07D4"/>
<path d="M181.188 82.1626C181.026 85.7664 179.72 89.0945 177.626 91.7978C174.464 95.8951 169.511 98.5588 164.059 98.5588C158.607 98.5588 153.898 95.8951 151.103 91.7978C149.25 89.0945 148.242 85.7671 148.403 82.1626C148.808 73.1066 156.475 65.7671 165.525 65.7671C174.581 65.7664 181.592 73.1066 181.188 82.1626Z" fill="white"/>
<path d="M182.73 69.1988C182.687 70.1562 182.34 71.0407 181.783 71.7588C180.943 72.8474 179.627 73.5552 178.178 73.5552C176.729 73.5552 175.479 72.8474 174.736 71.7588C174.243 71.0407 173.975 70.1562 174.018 69.1988C174.126 66.7924 176.163 64.8423 178.568 64.8423C180.974 64.8423 182.837 66.7924 182.73 69.1988Z" fill="#6D07D4"/>
<path d="M137.77 127.046C137.722 128.111 136.82 128.974 135.755 128.974C134.69 128.974 133.865 128.111 133.912 127.046C133.96 125.981 134.862 125.118 135.927 125.118C136.993 125.117 137.818 125.981 137.77 127.046Z" fill="#263238"/>
<path d="M146.401 127.046C146.354 128.111 145.451 128.974 144.386 128.974C143.322 128.974 142.497 128.111 142.544 127.046C142.591 125.981 143.494 125.118 144.559 125.118C145.624 125.118 146.449 125.981 146.401 127.046Z" fill="#263238"/>
<path d="M155.034 127.046C154.986 128.111 154.084 128.974 153.019 128.974C151.954 128.974 151.129 128.111 151.176 127.046C151.224 125.981 152.126 125.118 153.191 125.118C154.256 125.117 155.081 125.981 155.034 127.046Z" fill="#263238"/>
<path d="M136.318 159.522C136.271 160.587 135.368 161.45 134.303 161.45C133.238 161.45 132.413 160.587 132.461 159.522C132.508 158.457 133.41 157.593 134.475 157.593C135.54 157.593 136.365 158.457 136.318 159.522Z" fill="#263238"/>
<path d="M144.95 159.522C144.902 160.587 144 161.45 142.935 161.45C141.87 161.45 141.045 160.587 141.092 159.522C141.14 158.457 142.042 157.593 143.107 157.593C144.173 157.593 144.997 158.457 144.95 159.522Z" fill="#263238"/>
<path d="M153.581 159.522C153.534 160.587 152.632 161.45 151.567 161.45C150.502 161.45 149.677 160.587 149.724 159.522C149.771 158.457 150.674 157.593 151.739 157.593C152.804 157.593 153.629 158.457 153.581 159.522Z" fill="#263238"/>
<path d="M162.214 159.522C162.166 160.587 161.264 161.45 160.199 161.45C159.134 161.45 158.309 160.587 158.356 159.522C158.404 158.457 159.306 157.593 160.371 157.593C161.436 157.593 162.261 158.457 162.214 159.522Z" fill="#263238"/>
<path d="M170.846 159.522C170.798 160.587 169.896 161.45 168.831 161.45C167.766 161.45 166.941 160.587 166.988 159.522C167.036 158.457 167.938 157.593 169.003 157.593C170.068 157.593 170.893 158.457 170.846 159.522Z" fill="#263238"/>
<path d="M171.671 76.6823C171.507 80.3444 168.406 83.3134 164.743 83.3134C161.081 83.3134 158.244 80.3444 158.408 76.6823C158.572 73.0196 161.673 70.0513 165.336 70.0513C168.998 70.0513 171.835 73.0202 171.671 76.6823Z" fill="#6D07D4"/>
<path d="M177.626 91.7973C174.464 95.8945 169.511 98.5582 164.059 98.5582C158.607 98.5582 153.898 95.8945 151.103 91.7973C154.214 88.6997 159.138 86.6875 164.59 86.6875C170.048 86.6875 174.792 88.6997 177.626 91.7973Z" fill="#6D07D4"/>
<path opacity="0.1" d="M171.671 76.6823C171.507 80.3444 168.406 83.3134 164.743 83.3134C161.081 83.3134 158.244 80.3444 158.408 76.6823C158.572 73.0196 161.673 70.0513 165.336 70.0513C168.998 70.0513 171.835 73.0202 171.671 76.6823Z" fill="white"/>
<path opacity="0.1" d="M177.626 91.7973C174.464 95.8945 169.511 98.5582 164.059 98.5582C158.607 98.5582 153.898 95.8945 151.103 91.7973C154.214 88.6997 159.138 86.6875 164.59 86.6875C170.048 86.6875 174.792 88.6997 177.626 91.7973Z" fill="white"/>
<path d="M83.4606 135.964C82.8546 137.293 82.2165 138.755 81.6565 140.182C81.092 141.622 80.5288 143.063 80.0379 144.525C79.0843 147.449 78.1902 150.399 77.7499 153.358L77.604 154.3C77.5925 154.413 77.6008 154.574 77.6507 154.777C77.7442 155.183 77.9976 155.727 78.3541 156.261C79.0747 157.34 80.0962 158.434 81.1976 159.449C82.2965 160.48 83.4901 161.466 84.7304 162.402C85.9586 163.347 87.2539 164.272 88.5211 165.138L87.3282 167.384C84.283 166.053 81.4472 164.461 78.7003 162.464C77.3499 161.434 76.0162 160.327 74.8347 158.829C74.2523 158.074 73.6795 157.221 73.3045 156.094C73.1227 155.532 72.996 154.897 72.9954 154.21C72.9998 154.051 73.0082 153.829 73.019 153.723L73.0504 153.405L73.1144 152.769C73.4626 149.376 74.2139 146.115 75.204 142.953C75.7032 141.373 76.2357 139.81 76.8437 138.275C77.4645 136.731 78.077 135.249 78.8533 133.694L83.4606 135.964Z" fill="#FFCBA5"/>
<path d="M87.6252 164.757L92.1474 162.462L90.9794 167.433C90.9794 167.433 87.8742 168.3 86.4297 166.793L87.6252 164.757Z" fill="#FFCBA5"/>
<path d="M96.2888 163.278L95.0856 167.387L90.9788 167.433L92.1474 162.462L96.2888 163.278Z" fill="#FFCBA5"/>
<path d="M102.677 112.001C102.677 112.001 103.069 113.444 103.691 114.531C103.157 115.03 102.677 114.857 102.677 114.857V112.001Z" fill="#DF5753"/>
<path d="M102.543 112.039C102.808 112.039 103.022 111.71 103.022 111.305C103.022 110.9 102.808 110.572 102.543 110.572C102.278 110.572 102.063 110.9 102.063 111.305C102.063 111.71 102.278 112.039 102.543 112.039Z" fill="#263238"/>
<path d="M102.426 110.594L103.399 110.314C103.399 110.314 102.899 111.074 102.426 110.594Z" fill="#263238"/>
<path d="M90.1744 116.695C90.7587 119.675 91.3417 125.134 89.2566 127.122C89.2566 127.122 90.0713 130.144 95.6073 130.144C101.695 130.144 98.5168 127.122 98.5168 127.122C95.1945 126.328 95.2803 123.863 95.8588 121.548L90.1744 116.695Z" fill="#FFCBA5"/>
<path d="M88.5588 109.915C88.8641 114.889 88.8872 117 91.3998 119.553C95.1784 123.393 101.221 121.93 102.408 116.966C103.476 112.497 102.797 105.114 97.9284 103.134C93.131 101.184 88.2529 104.941 88.5588 109.915Z" fill="#FFCBA5"/>
<path d="M89.049 104.287C86.555 105.196 83.2276 104.52 84.5332 112.218C85.9156 120.37 83.7876 123.052 83.7876 123.052C83.7876 123.052 93.2545 125.068 102.918 122.931C102.918 122.931 99.9681 117.772 100.796 114.006C101.852 109.205 101.015 107.43 101.015 107.43C101.015 107.43 92.5562 103.008 89.049 104.287Z" fill="#263238"/>
<path d="M99.6098 112.507C99.5996 113.493 99.9452 114.485 100.393 115.175C101.067 116.212 101.867 115.79 102.067 114.712C102.248 113.743 102.114 112.036 101.251 111.374C100.401 110.722 99.622 111.381 99.6098 112.507Z" fill="#FFCBA5"/>
<path d="M86.8827 105.158C86.1627 103.145 89.5829 100.049 96.8136 101.337C104.044 102.625 104.362 108.638 104.362 108.638L102.899 106.902L102.965 108.73L95.5336 110.158L86.8827 105.158Z" fill="#263238"/>
<path d="M87.4958 127.46C87.396 126.845 87.8094 126.266 88.4238 126.165C90.6753 125.793 95.7928 125.04 98.3688 125.397C100.282 125.662 100.789 126.779 100.869 127.693C100.929 128.371 100.369 128.942 99.6891 128.912L88.5601 128.408C88.0257 128.384 87.5809 127.989 87.4958 127.46Z" fill="#5900B3"/>
<path opacity="0.6" d="M87.4958 127.46C87.396 126.845 87.8094 126.266 88.4238 126.165C90.6753 125.793 95.7928 125.04 98.3688 125.397C100.282 125.662 100.789 126.779 100.869 127.693C100.929 128.371 100.369 128.942 99.6891 128.912L88.5601 128.408C88.0257 128.384 87.5809 127.989 87.4958 127.46Z" fill="black"/>
<path d="M93.9265 239.272L98.0513 242.135L104.958 232.774L100.833 229.911L93.9265 239.272Z" fill="#FFCBA5"/>
<path d="M84.2979 239.083L88.6614 241.568L94.774 231.668L90.4111 229.183L84.2979 239.083Z" fill="#FFCBA5"/>
<path d="M104.955 232.777L101.396 237.602L97.2698 234.738L100.829 229.912L104.955 232.777Z" fill="#CF6F64"/>
<path d="M90.4084 229.185L94.7732 231.671L91.6199 236.773L87.2551 234.287L90.4084 229.185Z" fill="#CF6F64"/>
<path d="M97.4069 158.712C97.4069 158.712 113.522 179.023 110.499 198.445C108.056 214.133 93.9144 235.375 93.9144 235.375L87.2648 232.07C87.2648 232.07 94.4897 217.953 99.2341 202.988C101.224 196.712 100.376 189.798 96.6561 184.366C88.4929 172.442 75.4145 179.537 84.212 158.713L97.4069 158.712Z" fill="#5900B3"/>
<path opacity="0.6" d="M97.4069 158.712C97.4069 158.712 113.522 179.023 110.499 198.445C108.056 214.133 93.9144 235.375 93.9144 235.375L87.2648 232.07C87.2648 232.07 94.4897 217.953 99.2341 202.988C101.224 196.712 100.376 189.798 96.6561 184.366C88.4929 172.442 75.4145 179.537 84.212 158.713L97.4069 158.712Z" fill="black"/>
<path opacity="0.4" d="M105.312 171.763L102.97 169.435C102.97 169.619 107.509 197.63 108.784 205.502C109.553 203.088 110.145 200.707 110.501 198.445C111.98 188.935 108.869 179.208 105.312 171.763Z" fill="black"/>
<path d="M104.604 158.713C104.604 158.713 124.009 184.236 124.555 199.541C125.012 212.366 103.419 237.138 103.419 237.138L97.1497 233.082C97.1497 233.082 109.776 215.472 112.955 201.075C111.743 186.826 85.7283 158.712 85.7283 158.712H104.604V158.713Z" fill="#5900B3"/>
<path opacity="0.6" d="M104.604 158.713C104.604 158.713 124.009 184.236 124.555 199.541C125.012 212.366 103.419 237.138 103.419 237.138L97.1497 233.082C97.1497 233.082 109.776 215.472 112.955 201.075C111.743 186.826 85.7283 158.712 85.7283 158.712H104.604V158.713Z" fill="black"/>
<path d="M80.5972 128.262C78.5191 128.753 76.5332 136.296 76.5332 136.296L84.6375 141.706C84.6375 141.706 87.3383 135.744 86.3956 133.132C85.4132 130.412 83.2212 127.644 80.5972 128.262Z" fill="#5900B3"/>
<path opacity="0.2" d="M82.1831 133.116L81.6167 139.688L84.6337 141.708C84.6337 141.708 86.0474 138.584 86.4685 135.861L82.1831 133.116Z" fill="black"/>
<path d="M107.004 128.408C107.004 128.408 109.395 129.25 104.604 158.713C96.512 158.713 88.1492 158.713 84.2119 158.713C84.5543 150.413 84.5639 145.295 80.5972 128.263C80.5972 128.263 84.8698 127.333 89.2564 127.122C92.688 126.956 95.4996 126.846 98.5165 127.122C102.493 127.485 107.004 128.408 107.004 128.408Z" fill="#5900B3"/>
<path d="M109.075 133.086C109.537 134.363 110.026 135.744 110.535 137.07C111.023 138.416 111.53 139.76 112.053 141.097L113.622 145.117L114.019 146.122L114.218 146.624L114.318 146.875C114.335 146.92 114.332 146.916 114.325 146.912C114.298 146.899 114.274 146.773 113.877 146.512C113.683 146.391 113.356 146.275 113.042 146.268C112.725 146.257 112.474 146.334 112.33 146.397C112.041 146.535 112.037 146.594 112.043 146.584C112.062 146.575 112.121 146.518 112.186 146.439C112.466 146.103 112.804 145.524 113.1 144.948C113.403 144.361 113.689 143.734 113.974 143.098C114.54 141.822 115.056 140.491 115.58 139.158C116.098 137.821 116.586 136.464 117.07 135.104L118.527 131.019L120.993 131.64C120.505 134.562 119.874 137.424 119.122 140.295C118.755 141.734 118.33 143.16 117.844 144.6C117.602 145.322 117.331 146.041 117.02 146.775C116.697 147.514 116.377 148.243 115.804 149.089C115.654 149.304 115.484 149.53 115.246 149.78C114.995 150.026 114.706 150.323 114.08 150.604C113.769 150.737 113.337 150.856 112.837 150.836C112.34 150.822 111.836 150.645 111.487 150.429C110.778 149.976 110.533 149.544 110.323 149.221C110.226 149.058 110.142 148.89 110.085 148.769L109.963 148.521L109.72 148.024L109.236 147.031C108.604 145.699 107.984 144.36 107.397 143.006C106.816 141.649 106.25 140.285 105.701 138.91C105.175 137.514 104.656 136.162 104.193 134.677L109.075 133.086Z" fill="#FFCBA5"/>
<path d="M107.004 128.408C109.455 128.992 112.209 136.234 112.209 136.234L104.924 142.441C104.924 142.441 100.203 134.544 101.158 131.937C102.153 129.221 103.802 127.645 107.004 128.408Z" fill="#5900B3"/>
<path d="M119.665 128.761L122.222 126.623L124 129.394L122.69 131.707C122.69 131.707 120.604 133.617 118.757 132.645C118.16 131.293 118.531 129.71 119.665 128.761Z" fill="#FFCBA5"/>
<path d="M126.862 126.629L126.671 127.326L122.62 128.007L122.221 126.623L126.862 126.629Z" fill="#FFCBA5"/>
<path d="M103.938 237.474L96.6294 232.747L97.9382 230.471L106.151 235.52L103.938 237.474Z" fill="#5900B3"/>
<path d="M91.5093 241.233C90.9282 241.233 90.1634 240.864 89.7 240.607C89.6584 240.584 89.6347 240.539 89.6399 240.491C89.6443 240.444 89.677 240.404 89.7218 240.389C89.9189 240.327 91.6527 239.795 92.1435 240.208C92.221 240.273 92.3074 240.393 92.2799 240.594C92.244 240.859 92.1224 241.047 91.9189 241.148C91.8011 241.207 91.6616 241.233 91.5093 241.233ZM90.0699 240.535C90.8648 240.939 91.5048 241.088 91.8127 240.935C91.9439 240.87 92.0194 240.748 92.045 240.562C92.0584 240.461 92.0232 240.417 91.9906 240.39C91.7327 240.173 90.7714 240.342 90.0699 240.535Z" fill="#263238"/>
<path d="M89.7583 240.621C89.7263 240.621 89.6956 240.608 89.6732 240.585C89.6438 240.554 89.6329 240.511 89.6444 240.47C89.661 240.411 90.0604 239.021 90.7177 238.704C90.893 238.62 91.071 238.616 91.245 238.688C91.5215 238.805 91.549 239.007 91.5394 239.116C91.4946 239.692 90.3215 240.486 89.7865 240.617C89.7775 240.62 89.7679 240.621 89.7583 240.621ZM90.9986 238.876C90.9398 238.876 90.8802 238.89 90.8201 238.919C90.4284 239.108 90.0994 239.858 89.942 240.314C90.5052 240.077 91.2738 239.449 91.3014 239.098C91.3058 239.041 91.293 238.967 91.1516 238.908C91.101 238.886 91.0498 238.876 90.9986 238.876Z" fill="#263238"/>
<path d="M100.652 243.998C99.9311 243.998 98.9263 243.072 98.3766 242.503C98.3414 242.467 98.3331 242.412 98.3555 242.367C98.3785 242.322 98.4361 242.296 98.4771 242.302C98.7305 242.335 100.956 242.636 101.271 243.264C101.331 243.386 101.326 243.515 101.256 243.638C101.138 243.846 100.967 243.965 100.749 243.992C100.718 243.996 100.685 243.998 100.652 243.998ZM98.7977 242.589C99.6067 243.375 100.313 243.81 100.72 243.756C100.862 243.738 100.969 243.661 101.049 243.521C101.08 243.467 101.082 243.42 101.058 243.37C100.887 243.028 99.6982 242.733 98.7977 242.589Z" fill="#263238"/>
<path d="M98.8681 242.569C98.7036 242.569 98.5564 242.559 98.4406 242.537C98.3996 242.53 98.3651 242.501 98.3503 242.462C98.3363 242.422 98.3433 242.377 98.3702 242.345C98.4067 242.301 99.2726 241.257 100.091 241.185C100.347 241.165 100.563 241.233 100.749 241.392C101.001 241.607 100.983 241.799 100.924 241.922C100.722 242.349 99.6156 242.569 98.8681 242.569ZM98.703 242.329C99.4179 242.369 100.561 242.132 100.71 241.82C100.723 241.794 100.761 241.714 100.595 241.573C100.457 241.454 100.297 241.405 100.112 241.422C99.5747 241.469 98.975 242.039 98.703 242.329Z" fill="#263238"/>
<path d="M89.9337 239.948L84.5052 238.413C84.3075 238.357 84.1084 238.449 84.0265 238.634L82.1942 242.754C82.0041 243.181 82.2678 243.711 82.726 243.832C84.6275 244.334 85.5708 244.481 87.958 245.156C89.4268 245.572 91.5292 246.331 93.5574 246.903C95.5407 247.464 96.2601 245.502 95.4671 245.081C91.9107 243.197 91.6303 241.904 90.6575 240.473C90.4822 240.215 90.223 240.03 89.9337 239.948Z" fill="#5900B3"/>
<path d="M98.5243 241.756L93.8907 238.539C93.7217 238.422 93.5041 238.444 93.3659 238.592L90.2926 241.892C89.9739 242.234 90.0513 242.821 90.4449 243.084C92.0795 244.178 92.9243 244.623 94.962 246.038C96.2158 246.909 98.7182 248.839 100.449 250.041C102.143 251.216 103.461 249.595 102.848 248.939C100.099 246 99.4919 244.159 99.0382 242.487C98.9556 242.187 98.7707 241.927 98.5243 241.756Z" fill="#5900B3"/>
<path d="M94.7681 235.799L86.4116 231.646L87.2769 229.385L96.1959 233.757L94.7681 235.799Z" fill="#5900B3"/>
<path d="M83.9068 157.516L83.1996 159.341C83.1279 159.482 83.2956 159.627 83.5318 159.627H104.705C104.889 159.627 105.041 159.537 105.052 159.422L105.236 157.596C105.249 157.47 105.09 157.363 104.889 157.363H84.2383C84.0873 157.363 83.9529 157.425 83.9068 157.516Z" fill="#5900B3"/>
<path opacity="0.4" d="M83.9068 157.516L83.1996 159.341C83.1279 159.482 83.2956 159.627 83.5318 159.627H104.705C104.889 159.627 105.041 159.537 105.052 159.422L105.236 157.596C105.249 157.47 105.09 157.363 104.889 157.363H84.2383C84.0873 157.363 83.9529 157.425 83.9068 157.516Z" fill="white"/>
<path d="M87.2368 159.825H86.6838C86.5737 159.825 86.4899 159.768 86.4976 159.699L86.7568 157.328C86.7644 157.259 86.8604 157.202 86.9712 157.202H87.5241C87.6342 157.202 87.718 157.259 87.7104 157.328L87.4512 159.699C87.4435 159.769 87.3468 159.825 87.2368 159.825Z" fill="#5900B3"/>
<path d="M100.297 159.825H99.7443C99.6343 159.825 99.5504 159.768 99.5581 159.699L99.8173 157.328C99.825 157.259 99.921 157.202 100.032 157.202H100.585C100.695 157.202 100.779 157.259 100.771 157.328L100.512 159.699C100.504 159.769 100.407 159.825 100.297 159.825Z" fill="#5900B3"/>
<path d="M86.7495 268.216C96.2191 268.216 103.896 267.659 103.896 266.972C103.896 266.285 96.2191 265.728 86.7495 265.728C77.2799 265.728 69.6033 266.285 69.6033 266.972C69.6033 267.659 77.2799 268.216 86.7495 268.216Z" fill="#F5F5F5"/>
<path d="M97.1988 265.216C94.1652 264.336 90.8264 263.201 88.7604 261.995C88.7028 261.961 88.642 261.937 88.5838 261.906V248.192H94.6856C95.6948 248.192 96.5128 247.374 96.5128 246.364C96.5128 245.356 95.6948 244.538 94.6856 244.538H88.5838V181.931H84.93V244.538H78.8283C77.8196 244.538 77.0017 245.356 77.0017 246.364C77.0017 247.374 77.8196 248.192 78.8283 248.192H84.93V261.906C84.8718 261.936 84.811 261.96 84.7534 261.994C82.6875 263.2 79.3486 264.335 76.315 265.216C75.3198 265.504 75.5297 266.971 76.5659 266.971H86.7566H96.9473C97.9841 266.971 98.194 265.505 97.1988 265.216Z" fill="#E0E0E0"/>
<path d="M98.1376 188.958H75.376C73.5526 188.958 72.0608 187.466 72.0608 185.643V178.876C72.0608 177.053 73.5526 175.561 75.376 175.561H98.1376C99.9609 175.561 101.453 177.053 101.453 178.876V185.643C101.453 187.466 99.9609 188.958 98.1376 188.958Z" fill="#5900B3"/>
<path d="M75.1667 188.958V190.123C75.1667 191.083 76.2119 191.869 77.4887 191.869H96.025C97.3018 191.869 98.3469 191.083 98.3469 190.123V188.958H75.1667Z" fill="#5900B3"/>
<path opacity="0.3" d="M75.1667 188.958V190.123C75.1667 191.083 76.2119 191.869 77.4887 191.869H96.025C97.3018 191.869 98.3469 191.083 98.3469 190.123V188.958H75.1667Z" fill="white"/>
</svg>
