<svg width="28" height="28" viewBox="0 0 28 28" fill="none" xmlns="http://www.w3.org/2000/svg">
<path d="M9.77667 9.33317C9.6915 9.23441 9.62666 9.11983 9.58584 8.99597C9.54502 8.87212 9.52902 8.74143 9.53878 8.61139C9.54853 8.48135 9.58384 8.35451 9.64267 8.23813C9.70151 8.12175 9.78273 8.01812 9.88167 7.93317L13.3817 4.92317C13.4179 4.89562 13.457 4.87214 13.4983 4.85317C13.5527 4.81516 13.6115 4.78383 13.6733 4.75984H13.8483L14 4.6665H14.1867H14.3617C14.4235 4.69049 14.4823 4.72183 14.5367 4.75984C14.578 4.77881 14.6171 4.80228 14.6533 4.82984L18.1533 7.83984C18.2639 7.92084 18.3565 8.0239 18.4253 8.1425C18.4941 8.26111 18.5375 8.39268 18.5528 8.52891C18.5682 8.66514 18.5551 8.80308 18.5144 8.934C18.4738 9.06492 18.4064 9.18599 18.3166 9.28957C18.2268 9.39314 18.1164 9.47697 17.9926 9.53575C17.8687 9.59453 17.734 9.627 17.597 9.6311C17.46 9.63519 17.3236 9.61083 17.1964 9.55955C17.0693 9.50828 16.9542 9.43119 16.8583 9.33317L15.1667 7.97984V17.3132C15.1667 17.6226 15.0437 17.9193 14.825 18.1381C14.6062 18.3569 14.3094 18.4798 14 18.4798C13.6906 18.4798 13.3938 18.3569 13.175 18.1381C12.9562 17.9193 12.8333 17.6226 12.8333 17.3132V7.97984L11.1767 9.41484C10.9802 9.58965 10.7223 9.67926 10.4598 9.66394C10.1972 9.64862 9.95149 9.52964 9.77667 9.33317ZM23.3333 16.3332C23.0239 16.3332 22.7272 16.4561 22.5084 16.6749C22.2896 16.8937 22.1667 17.1904 22.1667 17.4998V20.9998C22.1667 21.3093 22.0438 21.606 21.825 21.8248C21.6062 22.0436 21.3094 22.1665 21 22.1665H7C6.69058 22.1665 6.39383 22.0436 6.17504 21.8248C5.95625 21.606 5.83333 21.3093 5.83333 20.9998V17.4998C5.83333 17.1904 5.71042 16.8937 5.49162 16.6749C5.27283 16.4561 4.97609 16.3332 4.66667 16.3332C4.35725 16.3332 4.0605 16.4561 3.84171 16.6749C3.62292 16.8937 3.5 17.1904 3.5 17.4998V20.9998C3.5 21.9281 3.86875 22.8183 4.52513 23.4747C5.1815 24.1311 6.07174 24.4998 7 24.4998H21C21.9283 24.4998 22.8185 24.1311 23.4749 23.4747C24.1313 22.8183 24.5 21.9281 24.5 20.9998V17.4998C24.5 17.1904 24.3771 16.8937 24.1583 16.6749C23.9395 16.4561 23.6428 16.3332 23.3333 16.3332Z" fill="#5900B3"/>
</svg>
