<svg width="20" height="20" viewBox="0 0 20 20" fill="none" xmlns="http://www.w3.org/2000/svg">
<path fill-rule="evenodd" clip-rule="evenodd" d="M7.96518 17.8802C4.90518 17.8802 2.29102 17.4177 2.29102 15.5644C2.29102 13.7111 4.88852 12.0411 7.96518 12.0411C11.0252 12.0411 13.6385 13.6952 13.6385 15.5477C13.6385 17.4002 11.0418 17.8802 7.96518 17.8802Z" stroke="#0C2755" stroke-width="1.5" stroke-linecap="round" stroke-linejoin="round"/>
<path fill-rule="evenodd" clip-rule="evenodd" d="M7.96484 9.39797C9.97318 9.39797 11.6015 7.76963 11.6015 5.7613C11.6015 3.75297 9.97318 2.12463 7.96484 2.12463C5.95651 2.12463 4.32815 3.75297 4.32815 5.7613C4.32068 7.76297 5.93818 9.3913 7.93901 9.39797H7.96484Z" stroke="#0C2755" stroke-width="1.5" stroke-linecap="round" stroke-linejoin="round"/>
<path d="M14.0015 8.39907C15.1707 8.08657 16.0324 7.02074 16.0324 5.7524C16.0332 4.42907 15.094 3.32407 13.8457 3.06824" stroke="#0C2755" stroke-width="1.5" stroke-linecap="round" stroke-linejoin="round"/>
<path d="M14.5508 11.378C16.2074 11.378 17.6224 12.5013 17.6224 13.5038C17.6224 14.0947 17.1349 14.7013 16.3933 14.8755" stroke="#0C2755" stroke-width="1.5" stroke-linecap="round" stroke-linejoin="round"/>
</svg>
